<?xml version="1.0" standalone="no"?>
<!DOCTYPE svg PUBLIC "-//W3C//DTD SVG 1.1//EN" "http://www.w3.org/Graphics/SVG/1.1/DTD/svg11.dtd" >
<svg xmlns="http://www.w3.org/2000/svg">
<metadata></metadata>
<defs>
<font id="controllerfive" horiz-adv-x="754" >
<font-face units-per-em="1000" ascent="770" descent="-230" />
<missing-glyph horiz-adv-x="330" />
<glyph unicode="&#xfb01;" horiz-adv-x="880" d="M499 738q37 0 37 -37v-73q0 -37 -37 -37h-184q-23 0 -36.5 -13.5t-13.5 -36.5v-21h234q37 0 37 -37v-73q0 -37 -37 -37h-234v-336q0 -37 -37 -37h-93q-37 0 -37 37v336h-35q-37 0 -37 37v73q0 37 37 37h35v59q0 72 44 115.5t115 43.5h242zM783 173q0 -26 26 -26h8 q37 0 37 -37v-73q0 -37 -37 -37h-53q-71 0 -109.5 38.5t-38.5 110.5v334q0 37 37 37h93q37 0 37 -37v-310zM783 701v-70q0 -37 -37 -37h-93q-37 0 -37 37v70q0 37 37 37h93q37 0 37 -37z" />
<glyph unicode="&#xfb02;" horiz-adv-x="880" d="M499 738q37 0 37 -37v-73q0 -37 -37 -37h-184q-23 0 -36.5 -13.5t-13.5 -36.5v-21h234q37 0 37 -37v-73q0 -37 -37 -37h-234v-336q0 -37 -37 -37h-93q-37 0 -37 37v336h-35q-37 0 -37 37v73q0 37 37 37h35v59q0 72 44 115.5t115 43.5h242zM783 173q0 -26 26 -26h8 q37 0 37 -37v-73q0 -37 -37 -37h-53q-71 0 -109.5 38.5t-38.5 110.5v552q0 37 37 37h93q37 0 37 -37v-528z" />
<glyph horiz-adv-x="1000" />
<glyph horiz-adv-x="1000" />
<glyph unicode="&#xd;" horiz-adv-x="1000" />
<glyph unicode=" "  horiz-adv-x="330" />
<glyph unicode="&#x09;" horiz-adv-x="330" />
<glyph unicode="&#xa0;" horiz-adv-x="330" />
<glyph unicode="!" horiz-adv-x="306" d="M51 40v85q0 40 40 40h124q40 0 40 -40v-85q0 -40 -40 -40h-124q-40 0 -40 40zM104 230q-39 0 -39 39v392q0 39 39 39h98q39 0 39 -39v-392q0 -39 -39 -39h-98z" />
<glyph unicode="&#x22;" horiz-adv-x="494" d="M51 392v274q0 34 35 34h93q34 0 34 -34v-274q0 -34 -35 -34h-93q-34 0 -34 34zM281 392v274q0 34 35 34h93q34 0 34 -34v-274q0 -34 -35 -34h-93q-34 0 -34 34z" />
<glyph unicode="#" horiz-adv-x="791" d="M20 162l12 83q4 30 35 30h71l21 150h-71q-32 0 -27 30l12 83q4 31 35 31h71l14 100q4 31 36 31h87q30 0 26 -31l-14 -100h196l14 100q4 31 36 31h87q30 0 26 -31l-14 -100h72q30 0 26 -31l-12 -83q-5 -30 -34 -30h-72l-21 -150h72q30 0 26 -30l-12 -83q-4 -31 -34 -31 h-72l-14 -100q-4 -31 -36 -31h-87q-30 0 -26 31l14 100h-196l-14 -100q-4 -31 -36 -31h-87q-30 0 -26 31l14 100h-71q-31 0 -27 31zM308 425l-21 -150h196l21 150h-196z" />
<glyph unicode="$" horiz-adv-x="898" d="M380 -51v71h-292q-40 0 -40 40v75q0 40 40 40h292v106h-134q-102 0 -156 40.5t-54 131.5v55q0 91 54 131.5t156 40.5h134v71q0 39 39 39h57q39 0 39 -39v-71h289q40 0 40 -40v-75q0 -40 -40 -40h-289v-106h139q102 0 156 -40.5t54 -131.5v-55q0 -91 -54 -131.5 t-156 -40.5h-139v-71q0 -39 -39 -39h-57q-39 0 -39 39zM212 467q0 -48 53 -48h115v106h-115q-53 0 -53 -49v-9zM629 281h-114v-106h114q53 0 53 49v9q0 48 -53 48z" />
<glyph unicode="%" horiz-adv-x="1071" d="M165 252q-61 0 -94.5 33t-33.5 95v192q0 62 33.5 95t94.5 33h132q61 0 94.5 -33t33.5 -95v-192q0 -57 -34 -92.5t-94 -35.5h-132zM774 0q-62 0 -95 33t-33 95v192q0 62 33 95t95 33h132q62 0 95 -33t33 -95v-192q0 -62 -33 -95t-95 -33h-132zM820 330q-39 0 -39 -39v-134 q0 -39 39 -39h40q39 0 39 39v134q0 39 -39 39h-40zM211 582q-39 0 -39 -39v-134q0 -39 39 -39h40q39 0 39 39v134q0 39 -39 39h-40zM776 661l-352 -633q-16 -28 -45 -28h-68q-14 0 -18 13t4 26l352 633q9 16 18 22t26 6h67q14 0 18.5 -13t-2.5 -26z" />
<glyph unicode="&#x26;" horiz-adv-x="940" d="M301 427h577q40 0 40 -40v-74q0 -40 -40 -40h-32q24 -36 24 -96v-15q0 -87 -49 -124.5t-144 -37.5h-438q-101 0 -153 40t-52 132v25q0 126 109 159q-77 41 -77 147v25q0 92 52 132t153 40h464q40 0 40 -40v-75q0 -40 -40 -40h-434q-59 0 -59 -54v-10q0 -54 59 -54z M639 273h-370q-59 0 -59 -54v-10q0 -54 59 -54h370q55 0 55 50v18q0 50 -55 50z" />
<glyph unicode="'" horiz-adv-x="264" d="M51 392v274q0 34 35 34h93q34 0 34 -34v-274q0 -34 -35 -34h-93q-34 0 -34 34z" />
<glyph unicode="(" horiz-adv-x="403" d="M216 533v-481q0 -35 21.5 -56t56.5 -21h40q33 0 33 -33v-63q0 -32 -33 -32h-97q-90 0 -139 49t-49 139v515q0 90 49 139t139 49h97q33 0 33 -32v-63q0 -33 -33 -33h-40q-35 0 -56.5 -21t-21.5 -56z" />
<glyph unicode=")" horiz-adv-x="403" d="M187 52v481q0 35 -21.5 56t-56.5 21h-40q-33 0 -33 33v63q0 32 33 32h97q90 0 139 -49t49 -139v-515q0 -90 -49 -139t-139 -49h-97q-33 0 -33 32v63q0 33 33 33h40q35 0 56.5 21t21.5 56z" />
<glyph unicode="*" horiz-adv-x="626" d="M401 663l-39 -183l163 93q32 19 44 -18l36 -110q5 -17 -2 -28t-24 -12l-185 -20l138 -124q27 -24 -3 -48l-93 -68q-31 -21 -46 13l-77 171l-77 -171q-15 -34 -46 -13l-93 68q-30 24 -3 48l137 124l-184 20q-37 5 -26 40l36 110q12 37 44 18l162 -94l-38 184q-4 17 4.5 27 t25.5 10h115q17 0 26 -10t5 -27z" />
<glyph unicode="+" horiz-adv-x="734" d="M404 25h-74q-40 0 -40 40v208h-218q-40 0 -40 40v74q0 40 40 40h218v208q0 40 40 40h74q40 0 40 -40v-208h218q40 0 40 -40v-74q0 -40 -40 -40h-218v-208q0 -40 -40 -40z" />
<glyph unicode="," horiz-adv-x="306" d="M238 -30l-69 -122q-14 -26 -44 -26h-53q-14 0 -19 10.5t2 22.5l77 145h-41q-40 0 -40 40v85q0 40 40 40h124q40 0 40 -40v-90q0 -36 -17 -65z" />
<glyph unicode="-" horiz-adv-x="372" d="M34 276v83q0 36 36 36h232q36 0 36 -36v-83q0 -36 -36 -36h-232q-36 0 -36 36z" />
<glyph unicode="." horiz-adv-x="306" d="M91 0q-40 0 -40 40v85q0 40 40 40h124q40 0 40 -40v-85q0 -40 -40 -40h-124z" />
<glyph unicode="/" horiz-adv-x="597" d="M581 697l-416 -787q-9 -18 -21 -24t-36 -6h-70q-19 0 -24.5 13.5t2.5 27.5l416 787q9 18 21 24t36 6h70q19 0 24.5 -13.5t-2.5 -27.5z" />
<glyph unicode="0" horiz-adv-x="942" d="M249 0q-96 0 -148 52t-52 148v300q0 96 52 148t148 52h444q96 0 148 -52t52 -148v-300q0 -97 -52 -148.5t-148 -51.5h-444zM298 545q-35 0 -54 -19t-19 -54v-244q0 -34 19.5 -53.5t53.5 -19.5h346q35 0 54 19.5t19 53.5v244q0 34 -19 53.5t-54 19.5h-346z" />
<glyph unicode="1" horiz-adv-x="396" d="M35 585v75q0 40 40 40h213q39 0 39 -39v-622q0 -39 -39 -39h-98q-39 0 -39 39v506h-76q-40 0 -40 40z" />
<glyph unicode="2" horiz-adv-x="902" d="M38 40v215q0 91 54 131.5t156 40.5h383q59 0 59 54v10q0 54 -59 54h-533q-40 0 -40 40v75q0 40 40 40h558q102 0 156 -40.5t54 -131.5v-83q0 -91 -54 -131.5t-156 -40.5h-383q-59 0 -59 -54v-64h608q40 0 40 -40v-75q0 -40 -40 -40h-744q-40 0 -40 40z" />
<glyph unicode="3" horiz-adv-x="910" d="M641 155q59 0 59 54v10q0 54 -59 54h-485q-40 0 -40 40v74q0 40 40 40h477q59 0 59 54v10q0 54 -59 54h-557q-40 0 -40 40v75q0 40 40 40h587q101 0 153 -40t52 -132v-25q0 -113 -88 -152q96 -36 96 -154v-25q0 -92 -52 -132t-153 -40h-595q-40 0 -40 40v75q0 40 40 40 h565z" />
<glyph unicode="4" horiz-adv-x="941" d="M619 657l-343 -371h404v375q0 39 39 39h98q39 0 39 -39v-375h30q40 0 40 -40v-75q0 -40 -40 -40h-30v-92q0 -39 -39 -39h-98q-39 0 -39 39v92h-607q-40 0 -40 40v52q0 31 24 58l355 389q17 19 32 24.5t44 5.5h116q19 0 23 -15t-8 -28z" />
<glyph unicode="5" horiz-adv-x="898" d="M832 660v-75q0 -40 -40 -40h-568v-118h430q102 0 156 -40.5t54 -131.5v-83q0 -91 -54 -131.5t-156 -40.5h-586q-40 0 -40 40v75q0 40 40 40h561q59 0 59 54v10q0 54 -59 54h-542q-39 0 -39 39v348q0 40 40 40h704q40 0 40 -40z" />
<glyph unicode="6" horiz-adv-x="922" d="M224 452v-25h454q102 0 156 -40.5t54 -131.5v-83q0 -91 -54 -131.5t-156 -40.5h-430q-96 0 -148 52t-52 148v267q0 112 59.5 172.5t171.5 60.5h537q40 0 40 -40v-75q0 -40 -40 -40h-498q-94 0 -94 -93zM297 155h356q59 0 59 54v10q0 54 -59 54h-429v-45q0 -35 19 -54 t54 -19z" />
<glyph unicode="7" horiz-adv-x="898" d="M179 43l462 502h-568q-40 0 -40 40v75q0 40 40 40h772q40 0 40 -40v-52q0 -31 -24 -58l-465 -519q-17 -19 -32 -25t-44 -6h-126q-19 0 -23 15t8 28z" />
<glyph unicode="8" horiz-adv-x="920" d="M681 0h-442q-101 0 -153 40t-52 132v25q0 118 96 154q-88 38 -88 152v25q0 92 52 132t153 40h426q101 0 153 -40t52 -132v-25q0 -113 -88 -152q96 -36 96 -154v-25q0 -91 -52.5 -131.5t-152.5 -40.5zM269 155h382q59 0 59 54v10q0 54 -59 54h-382q-59 0 -59 -54v-10 q0 -54 59 -54zM279 427h364q59 0 59 54v10q0 54 -59 54h-366q-59 0 -59 -54v-10q0 -54 61 -54z" />
<glyph unicode="9" horiz-adv-x="922" d="M604 155q94 0 94 93v25h-454q-102 0 -156 40.5t-54 131.5v83q0 91 54 131.5t156 40.5h430q96 0 148 -52t52 -148v-267q0 -112 -59.5 -172.5t-171.5 -60.5h-537q-40 0 -40 40v75q0 40 40 40h498zM625 545h-356q-59 0 -59 -54v-10q0 -54 59 -54h429v45q0 35 -19 54t-54 19z " />
<glyph unicode=":" horiz-adv-x="306" d="M91 315q-40 0 -40 40v85q0 40 40 40h124q40 0 40 -40v-85q0 -40 -40 -40h-124zM91 0q-40 0 -40 40v85q0 40 40 40h124q40 0 40 -40v-85q0 -40 -40 -40h-124z" />
<glyph unicode=";" horiz-adv-x="306" d="M238 -30l-69 -122q-14 -26 -44 -26h-53q-14 0 -19 10.5t2 22.5l77 145h-41q-40 0 -40 40v85q0 40 40 40h124q40 0 40 -40v-90q0 -36 -17 -65zM91 315q-40 0 -40 40v85q0 40 40 40h124q40 0 40 -40v-85q0 -40 -40 -40h-124z" />
<glyph unicode="&#x3c;" horiz-adv-x="734" d="M97 454l532 209q17 7 27.5 0.5t10.5 -23.5v-99q0 -34 -30 -46l-386 -145l386 -145q30 -12 30 -46v-99q0 -17 -10.5 -23.5t-27.5 0.5l-532 209q-30 12 -30 46v116q0 34 30 46z" />
<glyph unicode="=" horiz-adv-x="734" d="M82 417q-40 0 -40 40v71q0 40 40 40h570q40 0 40 -40v-71q0 -40 -40 -40h-570zM82 132q-40 0 -40 40v71q0 40 40 40h570q40 0 40 -40v-71q0 -40 -40 -40h-570z" />
<glyph unicode="&#x3e;" horiz-adv-x="734" d="M105 663l532 -209q30 -12 30 -46v-116q0 -34 -30 -46l-532 -209q-17 -7 -27.5 -0.5t-10.5 23.5v99q0 34 30 46l386 145l-386 145q-30 12 -30 46v99q0 17 10.5 23.5t27.5 -0.5z" />
<glyph unicode="?" horiz-adv-x="725" d="M523 497q0 48 -53 48h-407q-40 0 -40 40v75q0 40 40 40h426q210 0 210 -172v-62q0 -172 -210 -172h-147q-28 0 -28 -23v-1q0 -40 -40 -40h-72q-40 0 -40 40v56q0 116 116 116h192q53 0 53 48v7zM176 0q-40 0 -40 40v85q0 40 40 40h124q40 0 40 -40v-85q0 -40 -40 -40 h-124z" />
<glyph unicode="@" horiz-adv-x="930" d="M439 437h294v38q0 29 -16.5 45t-44.5 16h-338q-133 0 -133 -133v-249q0 -133 133 -133h476q35 0 35 -34v-66q0 -34 -35 -34h-511q-121 0 -185.5 65.5t-64.5 185.5v281q0 120 64.5 185.5t185.5 65.5h411q79 0 127 -48t48 -127v-226q0 -72 -38.5 -110.5t-110.5 -38.5h-297 q-71 0 -110 38.5t-39 110.5v19q0 72 39 110.5t110 38.5zM478 254h219q36 0 36 29v40h-255q-36 0 -36 -29v-11q0 -29 36 -29z" />
<glyph unicode="A" horiz-adv-x="990" d="M53 491q0 99 54 154t154 55h468q100 0 154 -55t54 -154v-449q0 -42 -42 -42h-102q-42 0 -42 42v155h-512v-155q0 -42 -42 -42h-102q-42 0 -42 42v449zM751 361v101q0 74 -74 74h-364q-74 0 -74 -74v-101h512z" />
<glyph unicode="B" horiz-adv-x="967" d="M99 700h613q105 0 159 -42t54 -137v-9q0 -122 -95 -161q103 -36 103 -163v-9q0 -95 -54 -137t-159 -42h-621q-42 0 -42 42v616q0 42 42 42zM689 273h-446v-109h446q58 0 58 50v9q0 50 -58 50zM243 536v-109h438q58 0 58 50v9q0 50 -58 50h-438z" />
<glyph unicode="C" horiz-adv-x="934" d="M257 0q-100 0 -154 55t-54 154v282q0 99 54 154t154 55h598q42 0 42 -42v-80q0 -42 -42 -42h-546q-74 0 -74 -74v-224q0 -74 74 -74h546q42 0 42 -42v-80q0 -42 -42 -42h-598z" />
<glyph unicode="D" horiz-adv-x="989" d="M57 658q0 42 42 42h602q117 0 178.5 -62.5t61.5 -178.5v-218q0 -116 -61.5 -178.5t-178.5 -62.5h-602q-42 0 -42 42v616zM755 267v166q0 103 -104 103h-408v-372h408q104 0 104 103z" />
<glyph unicode="E" horiz-adv-x="951" d="M235 273v-35q0 -74 74 -74h562q42 0 42 -42v-80q0 -42 -42 -42h-614q-100 0 -154 55t-54 154v282q0 99 54 154t154 55h614q42 0 42 -42v-80q0 -42 -42 -42h-562q-74 0 -74 -74v-35h556q42 0 42 -42v-70q0 -42 -42 -42h-556z" />
<glyph unicode="F" horiz-adv-x="928" d="M239 253v-211q0 -42 -42 -42h-102q-42 0 -42 42v449q0 99 54 154t154 55h602q42 0 42 -42v-80q0 -42 -42 -42h-550q-74 0 -74 -74v-45h544q42 0 42 -42v-80q0 -42 -42 -42h-544z" />
<glyph unicode="G" horiz-adv-x="980" d="M941 385v-206q0 -95 -56 -137t-162 -42h-466q-100 0 -154 55t-54 154v282q0 99 54 154t154 55h610q42 0 42 -42v-80q0 -42 -42 -42h-558q-74 0 -74 -74v-224q0 -74 74 -74h388q58 0 58 50v59h-156q-42 0 -42 42v70q0 42 42 42h300q42 0 42 -42z" />
<glyph unicode="H" horiz-adv-x="994" d="M57 658q0 42 42 42h102q42 0 42 -42v-226h508v226q0 42 42 42h102q42 0 42 -42v-616q0 -42 -42 -42h-102q-42 0 -42 42v226h-508v-226q0 -42 -42 -42h-102q-42 0 -42 42v616z" />
<glyph unicode="I" horiz-adv-x="300" d="M243 658v-616q0 -42 -42 -42h-102q-42 0 -42 42v616q0 42 42 42h102q42 0 42 -42z" />
<glyph unicode="J" horiz-adv-x="908" d="M209 238q0 -74 74 -74h312q74 0 74 74v420q0 42 42 42h102q42 0 42 -42v-449q0 -99 -54 -154t-154 -55h-416q-100 0 -154 55t-54 154v109q0 42 42 42h102q42 0 42 -42v-80z" />
<glyph unicode="K" horiz-adv-x="996" d="M243 658v-226h270l236 243q14 15 27.5 20t40.5 5h131q19 0 24 -16.5t-9 -31.5l-294 -300l298 -304q14 -15 9 -31.5t-24 -16.5h-136q-27 0 -40.5 5t-27.5 20l-236 243h-269v-226q0 -42 -42 -42h-102q-42 0 -42 42v616q0 42 42 42h102q42 0 42 -42z" />
<glyph unicode="L" horiz-adv-x="908" d="M239 238q0 -74 74 -74h530q42 0 42 -42v-80q0 -42 -42 -42h-582q-100 0 -154 55t-54 154v449q0 42 42 42h102q42 0 42 -42v-420z" />
<glyph unicode="M" horiz-adv-x="1350" d="M582 462q0 74 -74 74h-195q-74 0 -74 -74v-420q0 -42 -42 -42h-102q-42 0 -42 42v449q0 99 54 154t154 55h236q125 0 178 -86q52 86 178 86h236q100 0 154 -55t54 -154v-449q0 -42 -42 -42h-102q-42 0 -42 42v420q0 74 -74 74h-195q-74 0 -74 -74v-420q0 -42 -42 -42 h-102q-42 0 -42 42v420z" />
<glyph unicode="N" horiz-adv-x="986" d="M53 491q0 99 54 154t154 55h464q100 0 154 -55t54 -154v-449q0 -42 -42 -42h-102q-42 0 -42 42v420q0 74 -74 74h-360q-74 0 -74 -74v-420q0 -42 -42 -42h-102q-42 0 -42 42v449z" />
<glyph unicode="O" horiz-adv-x="1002" d="M257 0q-100 0 -154 55t-54 154v282q0 99 54 154t154 55h488q100 0 154 -55t54 -154v-282q0 -99 -54 -154t-154 -55h-488zM693 164q74 0 74 74v224q0 74 -74 74h-384q-74 0 -74 -74v-224q0 -74 74 -74h384z" />
<glyph unicode="P" horiz-adv-x="939" d="M57 658q0 42 42 42h606q100 0 154 -55t54 -154v-64q0 -99 -54 -154t-154 -55h-462v-176q0 -42 -42 -42h-102q-42 0 -42 42v616zM727 470q0 66 -66 66h-418v-154h418q66 0 66 66v22z" />
<glyph unicode="Q" horiz-adv-x="1002" d="M257 0q-100 0 -154 55t-54 154v282q0 99 54 154t154 55h488q100 0 154 -55t54 -154v-282q0 -99 -54 -154t-154 -55h-151v-78q0 -42 -42 -42h-102q-42 0 -42 42v78h-151zM693 164q74 0 74 74v224q0 74 -74 74h-384q-74 0 -74 -74v-224q0 -74 74 -74h384z" />
<glyph unicode="R" horiz-adv-x="958" d="M243 42q0 -42 -42 -42h-102q-42 0 -42 42v616q0 42 42 42h605q105 0 159 -42t54 -137v-48q0 -128 -104 -164q104 -36 104 -164v-103q0 -42 -42 -42h-102q-42 0 -42 42v106q0 79 -87 79h-401v-185zM731 441v45q0 50 -58 50h-430v-145h430q58 0 58 50z" />
<glyph unicode="S" horiz-adv-x="954" d="M281 536q-58 0 -58 -50v-9q0 -50 58 -50h419q106 0 162 -42t56 -137v-69q0 -95 -56 -137t-162 -42h-609q-42 0 -42 42v80q0 42 42 42h583q58 0 58 50v9q0 50 -58 50h-419q-106 0 -162 42t-56 137v69q0 95 56 137t162 42h600q42 0 42 -42v-80q0 -42 -42 -42h-574z" />
<glyph unicode="T" horiz-adv-x="932" d="M559 536v-494q0 -42 -42 -42h-102q-42 0 -42 42v494h-307q-42 0 -42 42v80q0 42 42 42h800q42 0 42 -42v-80q0 -42 -42 -42h-307z" />
<glyph unicode="U" horiz-adv-x="986" d="M933 209q0 -99 -54 -154t-154 -55h-464q-100 0 -154 55t-54 154v449q0 42 42 42h102q42 0 42 -42v-420q0 -74 74 -74h360q74 0 74 74v420q0 42 42 42h102q42 0 42 -42v-449z" />
<glyph unicode="V" horiz-adv-x="956" d="M431 0q-58 0 -82 43l-332 610q-9 15 -2 31t26 16h120q41 0 57 -30l262 -508l263 508q17 30 57 30h115q19 0 26 -16t-2 -31l-332 -610q-24 -43 -82 -43h-94z" />
<glyph unicode="W" horiz-adv-x="1350" d="M1297 209q0 -99 -54 -154t-154 -55h-236q-127 0 -178 86q-52 -86 -178 -86h-236q-100 0 -154 55t-54 154v449q0 42 42 42h102q42 0 42 -42v-420q0 -74 74 -74h195q74 0 74 74v420q0 42 42 42h102q42 0 42 -42v-420q0 -74 74 -74h195q74 0 74 74v420q0 42 42 42h102 q42 0 42 -42v-449z" />
<glyph unicode="X" horiz-adv-x="931" d="M682 25l-219 230l-219 -230q-14 -15 -27.5 -20t-40.5 -5h-132q-19 0 -24 16.5t9 31.5l298 304l-293 300q-14 15 -9 31.5t24 16.5h137q27 0 40.5 -5t27.5 -20l214 -226l215 226q14 15 27.5 20t40.5 5h132q19 0 24 -16.5t-9 -31.5l-294 -300l298 -304q14 -15 9 -31.5 t-24 -16.5h-137q-27 0 -40.5 5t-27.5 20z" />
<glyph unicode="Y" horiz-adv-x="982" d="M217 435q0 -74 74 -74h400q74 0 74 74v223q0 42 42 42h102q42 0 42 -42v-252q0 -99 -54 -154t-154 -55h-159v-155q0 -42 -42 -42h-102q-42 0 -42 42v155h-159q-100 0 -154 55t-54 154v252q0 42 42 42h102q42 0 42 -42v-223z" />
<glyph unicode="Z" horiz-adv-x="929" d="M78 0q-42 0 -42 42v61q0 36 33 60l523 373h-502q-42 0 -42 42v80q0 42 42 42h760q42 0 42 -42v-61q0 -36 -33 -60l-523 -373h514q42 0 42 -42v-80q0 -42 -42 -42h-772z" />
<glyph unicode="[" horiz-adv-x="401" d="M57 -121v827q0 32 33 32h242q33 0 33 -32v-63q0 -33 -33 -33h-108v-635h108q33 0 33 -33v-63q0 -32 -33 -32h-242q-33 0 -33 32z" />
<glyph unicode="\" horiz-adv-x="597" d="M432 -90l-416 787q-8 14 -2.5 27.5t24.5 13.5h70q24 0 36 -6t21 -24l416 -787q8 -14 2.5 -27.5t-24.5 -13.5h-70q-24 0 -36 6t-21 24z" />
<glyph unicode="]" horiz-adv-x="401" d="M344 706v-827q0 -32 -33 -32h-242q-33 0 -33 32v63q0 33 33 33h108v635h-108q-33 0 -33 33v63q0 32 33 32h242q33 0 33 -32z" />
<glyph unicode="^" horiz-adv-x="734" d="M472 672l253 -405q9 -13 2 -26t-24 -13h-96q-21 0 -31.5 5.5t-21.5 22.5l-187 300l-187 -300q-11 -17 -21.5 -22.5t-31.5 -5.5h-96q-17 0 -24 13t2 26l253 405q17 28 56 28h98q39 0 56 -28z" />
<glyph unicode="_" horiz-adv-x="500" d="M500 -81v-51q0 -35 -35 -35h-430q-35 0 -35 35v51q0 35 35 35h430q35 0 35 -35z" />
<glyph unicode="`" horiz-adv-x="500" d="M222 594l-103 130q-8 10 -3.5 20.5t18.5 10.5h122q28 0 42 -23l83 -128q7 -9 1.5 -20.5t-19.5 -11.5h-96q-28 0 -45 22z" />
<glyph unicode="a" d="M537 312v11q0 23 -13.5 36.5t-36.5 13.5h-394q-37 0 -37 37v73q0 37 37 37h452q71 0 115 -43.5t44 -115.5v-212q0 -72 -39 -110.5t-110 -38.5h-370q-72 0 -110.5 38.5t-38.5 110.5v14q0 72 38.5 110.5t110.5 38.5h352zM229 147h282q26 0 26 26v35h-308q-26 0 -26 -26v-9 q0 -26 26 -26z" />
<glyph unicode="b" horiz-adv-x="781" d="M349 520h223q71 0 115 -43.5t44 -115.5v-202q0 -72 -44 -115.5t-115 -43.5h-358q-71 0 -115 43.5t-44 115.5v542q0 37 37 37h93q37 0 37 -37v-238q41 57 127 57zM222 323v-126q0 -23 13.5 -36.5t36.5 -13.5h242q23 0 36.5 13.5t13.5 36.5v126q0 23 -13.5 36.5t-36.5 13.5 h-242q-23 0 -36.5 -13.5t-13.5 -36.5z" />
<glyph unicode="c" horiz-adv-x="724" d="M649 147q37 0 37 -37v-73q0 -37 -37 -37h-440q-71 0 -115 43.5t-44 115.5v202q0 72 44 115.5t115 43.5h440q37 0 37 -37v-73q0 -37 -37 -37h-382q-23 0 -36.5 -13.5t-13.5 -36.5v-126q0 -23 13.5 -36.5t36.5 -13.5h382z" />
<glyph unicode="d" horiz-adv-x="781" d="M209 520h223q85 0 127 -57v238q0 37 37 37h93q37 0 37 -37v-542q0 -72 -44 -115.5t-115 -43.5h-358q-71 0 -115 43.5t-44 115.5v202q0 72 44 115.5t115 43.5zM559 197v126q0 23 -13.5 36.5t-36.5 13.5h-242q-23 0 -36.5 -13.5t-13.5 -36.5v-126q0 -23 13.5 -36.5 t36.5 -13.5h242q23 0 36.5 13.5t13.5 36.5z" />
<glyph unicode="e" d="M209 520h360q72 0 110.5 -38.5t38.5 -110.5v-14q0 -72 -38.5 -110.5t-110.5 -38.5h-352v-11q0 -23 13.5 -36.5t36.5 -13.5h394q37 0 37 -37v-73q0 -37 -37 -37h-452q-71 0 -115 43.5t-44 115.5v202q0 72 44 115.5t115 43.5zM217 323v-11h308q26 0 26 26v9q0 26 -26 26 h-258q-23 0 -36.5 -13.5t-13.5 -36.5z" />
<glyph unicode="f" horiz-adv-x="561" d="M499 738q37 0 37 -37v-73q0 -37 -37 -37h-184q-23 0 -36.5 -13.5t-13.5 -36.5v-21h234q37 0 37 -37v-73q0 -37 -37 -37h-234v-336q0 -37 -37 -37h-93q-37 0 -37 37v336h-35q-37 0 -37 37v73q0 37 37 37h35v59q0 72 44 115.5t115 43.5h242z" />
<glyph unicode="g" horiz-adv-x="781" d="M431 0h-222q-71 0 -115 43.5t-44 115.5v202q0 72 44 115.5t115 43.5h357q71 0 115 -43.5t44 -115.5v-399q1 -80 -47 -127.5t-128 -47.5h-435q-37 0 -37 37v66q0 37 37 37h388q55 0 55 56v73q-42 -56 -127 -56zM558 197v126q0 23 -13.5 36.5t-36.5 13.5h-241 q-23 0 -36.5 -13.5t-13.5 -36.5v-126q0 -23 13.5 -36.5t36.5 -13.5h241q23 0 36.5 13.5t13.5 36.5z" />
<glyph unicode="h" horiz-adv-x="773" d="M559 520q71 0 115 -43.5t44 -115.5v-324q0 -37 -37 -37h-93q-37 0 -37 37v286q0 23 -13.5 36.5t-36.5 13.5h-226q-23 0 -36.5 -13.5t-13.5 -36.5v-286q0 -37 -37 -37h-93q-37 0 -37 37v664q0 37 37 37h93q37 0 37 -37v-238q41 57 127 57h207z" />
<glyph unicode="i" horiz-adv-x="319" d="M222 173q0 -26 26 -26h8q37 0 37 -37v-73q0 -37 -37 -37h-53q-71 0 -109.5 38.5t-38.5 110.5v334q0 37 37 37h93q37 0 37 -37v-310zM222 701v-70q0 -37 -37 -37h-93q-37 0 -37 37v70q0 37 37 37h93q37 0 37 -37z" />
<glyph unicode="j" horiz-adv-x="277" d="M55 -29v512q0 37 37 37h93q37 0 37 -37v-537q0 -72 -43.5 -115.5t-115.5 -43.5h-61q-37 0 -37 37v66q0 37 37 37h8q45 0 45 44zM222 701v-70q0 -37 -37 -37h-93q-37 0 -37 37v70q0 37 37 37h93q37 0 37 -37z" />
<glyph unicode="k" horiz-adv-x="738" d="M225 37q0 -37 -37 -37h-93q-37 0 -37 37v664q0 37 37 37h93q37 0 37 -37v-366h130l161 166q18 19 56 19h114q19 0 24 -16.5t-7 -27.5l-215 -214l219 -218q12 -11 7 -27.5t-24 -16.5h-117q-38 0 -56 19l-164 169h-128v-151z" />
<glyph unicode="l" horiz-adv-x="319" d="M222 173q0 -26 26 -26h8q37 0 37 -37v-73q0 -37 -37 -37h-53q-71 0 -109.5 38.5t-38.5 110.5v552q0 37 37 37h93q37 0 37 -37v-528z" />
<glyph unicode="m" horiz-adv-x="1043" d="M438 323q0 23 -13.5 36.5t-36.5 13.5h-116q-23 0 -36.5 -13.5t-13.5 -36.5v-286q0 -37 -37 -37h-93q-37 0 -37 37v324q0 72 44 115.5t115 43.5h182q87 0 125 -64q40 64 126 64h182q71 0 115 -43.5t44 -115.5v-324q0 -37 -37 -37h-93q-37 0 -37 37v286q0 23 -13.5 36.5 t-36.5 13.5h-116q-23 0 -36.5 -13.5t-13.5 -36.5v-286q0 -37 -37 -37h-93q-37 0 -37 37v286z" />
<glyph unicode="n" horiz-adv-x="770" d="M55 361q0 72 44 115.5t115 43.5h342q71 0 115 -43.5t44 -115.5v-324q0 -37 -37 -37h-93q-37 0 -37 37v286q0 23 -13.5 36.5t-36.5 13.5h-226q-23 0 -36.5 -13.5t-13.5 -36.5v-286q0 -37 -37 -37h-93q-37 0 -37 37v324z" />
<glyph unicode="o" horiz-adv-x="776" d="M209 0q-71 0 -115 43.5t-44 115.5v202q0 72 44 115.5t115 43.5h358q71 0 115 -43.5t44 -115.5v-202q0 -72 -44 -115.5t-115 -43.5h-358zM267 373q-23 0 -36.5 -13.5t-13.5 -36.5v-126q0 -23 13.5 -36.5t36.5 -13.5h242q23 0 36.5 13t13.5 37v126q0 23 -13.5 36.5 t-36.5 13.5h-242z" />
<glyph unicode="p" horiz-adv-x="781" d="M572 0h-223q-87 0 -127 56v-232q0 -37 -37 -37h-93q-37 0 -37 37v537q0 72 44 115.5t115 43.5h358q71 0 115 -43.5t44 -115.5v-202q0 -72 -44 -115.5t-115 -43.5zM222 323v-126q0 -23 13.5 -36.5t36.5 -13.5h242q23 0 36.5 13.5t13.5 36.5v126q0 23 -13.5 36.5 t-36.5 13.5h-242q-23 0 -36.5 -13.5t-13.5 -36.5z" />
<glyph unicode="q" horiz-adv-x="781" d="M432 0h-223q-71 0 -115 43.5t-44 115.5v202q0 72 44 115.5t115 43.5h358q71 0 115 -43.5t44 -115.5v-537q0 -37 -37 -37h-93q-37 0 -37 37v232q-42 -56 -127 -56zM559 197v126q0 23 -13.5 36.5t-36.5 13.5h-242q-23 0 -36.5 -13.5t-13.5 -36.5v-126q0 -23 13.5 -36.5 t36.5 -13.5h242q23 0 36.5 13.5t13.5 36.5z" />
<glyph unicode="r" horiz-adv-x="532" d="M55 361q0 72 44 115.5t115 43.5h256q37 0 37 -37v-73q0 -37 -37 -37h-198q-23 0 -36.5 -13.5t-13.5 -36.5v-286q0 -37 -37 -37h-93q-37 0 -37 37v324z" />
<glyph unicode="s" horiz-adv-x="732" d="M547 0h-464q-37 0 -37 37v73q0 37 37 37h420q26 0 26 26v9q0 26 -26 26h-318q-72 0 -110.5 38.5t-38.5 110.5v14q0 72 38.5 110.5t110.5 38.5h454q37 0 37 -37v-73q0 -37 -37 -37h-410q-26 0 -26 -26v-9q0 -26 26 -26h318q72 0 110.5 -38.5t38.5 -110.5v-14 q0 -72 -38.5 -110.5t-110.5 -38.5z" />
<glyph unicode="t" horiz-adv-x="578" d="M503 147q37 0 37 -37v-73q0 -37 -37 -37h-249q-71 0 -115 43.5t-44 115.5v214h-34q-37 0 -37 37v73q0 37 37 37h34v88q0 37 37 37h93q37 0 37 -37v-88h234q37 0 37 -37v-73q0 -37 -37 -37h-234v-176q0 -23 13.5 -36.5t36.5 -13.5h191z" />
<glyph unicode="u" horiz-adv-x="770" d="M222 197q0 -23 13.5 -36.5t36.5 -13.5h226q23 0 36.5 13.5t13.5 36.5v286q0 37 37 37h93q37 0 37 -37v-324q0 -72 -44 -115.5t-115 -43.5h-342q-71 0 -115 43.5t-44 115.5v324q0 37 37 37h93q37 0 37 -37v-286z" />
<glyph unicode="v" horiz-adv-x="749" d="M316 0q-40 0 -55 29l-243 451q-8 12 -2 26t23 14h113q34 0 46 -25l178 -353l179 353q13 25 46 25h109q17 0 23 -14t-2 -26l-243 -451q-15 -29 -55 -29h-117z" />
<glyph unicode="w" horiz-adv-x="1043" d="M988 159q0 -72 -44 -115.5t-115 -43.5h-182q-87 0 -126 64q-37 -64 -125 -64h-182q-71 0 -115 43.5t-44 115.5v324q0 37 37 37h93q37 0 37 -37v-286q0 -23 13.5 -36.5t36.5 -13.5h116q23 0 36.5 13.5t13.5 36.5v286q0 37 37 37h93q37 0 37 -37v-286q0 -23 13.5 -36.5 t36.5 -13.5h116q23 0 36.5 13.5t13.5 36.5v286q0 37 37 37h93q37 0 37 -37v-324z" />
<glyph unicode="x" horiz-adv-x="735" d="M169 520q38 0 56 -19l144 -151l145 151q18 19 56 19h113q19 0 23.5 -16.5t-6.5 -27.5l-215 -214l219 -218q11 -11 6.5 -27.5t-23.5 -16.5h-116q-38 0 -56 19l-149 155l-149 -155q-18 -19 -56 -19h-113q-19 0 -23.5 16.5t6.5 27.5l219 218l-214 214q-11 11 -6.5 27.5 t23.5 16.5h116z" />
<glyph unicode="y" horiz-adv-x="774" d="M715 483v-521q1 -80 -47 -127.5t-128 -47.5h-420q-37 0 -37 37v66q0 37 37 37h373q55 0 55 56v73q-42 -56 -127 -56h-207q-71 0 -115 43.5t-44 115.5v324q0 37 37 37h93q37 0 37 -37v-286q0 -23 13.5 -36.5t36.5 -13.5h226q23 0 36.5 13.5t13.5 36.5v286q0 37 37 37h93 q37 0 37 -37z" />
<glyph unicode="z" horiz-adv-x="712" d="M85 520h554q37 0 37 -37v-46q0 -32 -29 -53l-341 -237h333q37 0 37 -37v-73q0 -37 -37 -37h-566q-37 0 -37 37v46q0 32 29 53l340 237h-320q-37 0 -37 37v73q0 37 37 37z" />
<glyph unicode="{" horiz-adv-x="420" d="M56 228q-33 0 -33 33v63q0 32 33 32h2q38 0 38 37v157q0 90 49 139t139 49h67q33 0 33 -32v-63q0 -33 -33 -33h-10q-35 0 -56.5 -21.5t-21.5 -55.5v-108q0 -106 -92 -133q92 -27 92 -133v-107q0 -34 21.5 -55.5t56.5 -21.5h10q33 0 33 -33v-63q0 -32 -33 -32h-67 q-90 0 -139 49t-49 139v156q0 37 -38 37h-2z" />
<glyph unicode="|" horiz-adv-x="500" d="M213 -120q-34 0 -34 34v790q0 34 34 34h74q34 0 34 -34v-790q0 -34 -34 -34h-74z" />
<glyph unicode="}" horiz-adv-x="420" d="M364 355q33 0 33 -33v-63q0 -32 -33 -32h-2q-38 0 -38 -37v-156q0 -90 -49 -139t-139 -49h-67q-33 0 -33 32v63q0 33 33 33h10q35 0 56.5 21.5t21.5 55.5v107q0 106 92 133q-92 27 -92 133v108q0 34 -21.5 55.5t-56.5 21.5h-10q-33 0 -33 33v63q0 32 33 32h67 q90 0 139 -49t49 -139v-157q0 -37 38 -37h2z" />
<glyph unicode="~" horiz-adv-x="734" d="M214 315q-76 0 -145 -62q-11 -11 -24 -7.5t-13 19.5v91q0 32 19 50q70 65 173 65q45 0 87.5 -13t70 -28.5t65 -28.5t73.5 -13q76 0 145 62q11 11 24 7.5t13 -19.5v-91q0 -32 -19 -50q-70 -65 -173 -65q-57 0 -108 21t-97 41.5t-91 20.5z" />
<glyph unicode="&#xa1;" horiz-adv-x="306" d="M255 660v-85q0 -40 -40 -40h-124q-40 0 -40 40v85q0 40 40 40h124q40 0 40 -40zM202 470q39 0 39 -39v-392q0 -39 -39 -39h-98q-39 0 -39 39v392q0 39 39 39h98z" />
<glyph unicode="&#xa2;" horiz-adv-x="809" d="M374 19v71h-170q-71 0 -115 43.5t-44 115.5v202q0 72 44 115.5t115 43.5h170v71q0 39 39 39h57q39 0 39 -39v-71h227q37 0 37 -37v-73q0 -37 -37 -37h-227v-226h227q37 0 37 -37v-73q0 -37 -37 -37h-227v-71q0 -39 -39 -39h-57q-39 0 -39 39zM212 287q0 -23 13.5 -36.5 t36.5 -13.5h112v226h-112q-23 0 -36.5 -13.5t-13.5 -36.5v-126z" />
<glyph unicode="&#xa3;" horiz-adv-x="901" d="M24 313v74q0 40 40 40h48v40q0 112 59.5 172.5t171.5 60.5h455q40 0 40 -40v-75q0 -40 -40 -40h-416q-94 0 -94 -93v-25h430q40 0 40 -40v-74q0 -40 -40 -40h-430v-118h550q40 0 40 -40v-75q0 -40 -40 -40h-774q-40 0 -40 40v75q0 40 40 40h48v118h-48q-40 0 -40 40z" />
<glyph unicode="&#xa4;" horiz-adv-x="734" d="M105 350q0 71 36 132l-87 88q-24 24 0 47l46 46q24 23 47 0l87 -87q61 36 133 36t133 -36l87 87q23 23 47 0l46 -46q24 -23 0 -47l-87 -87q36 -61 36 -133t-36 -133l87 -87q24 -24 0 -47l-46 -46q-24 -23 -47 0l-88 87q-61 -36 -132 -36q-72 0 -133 36l-87 -87 q-23 -23 -47 0l-46 46q-24 23 0 47l87 87q-36 61 -36 133zM237 350q0 -54 38 -92t92 -38t92 38t38 92t-38 92t-92 38t-92 -38t-38 -92z" />
<glyph unicode="&#xa5;" horiz-adv-x="914" d="M63 141v64q0 40 40 40h266v76h-138q-96 0 -148 52t-52 148v140q0 39 39 39h98q39 0 39 -39v-112q0 -35 19 -54t54 -19h354q35 0 54 19t19 54v112q0 39 39 39h98q39 0 39 -39v-140q0 -96 -52 -148t-148 -52h-138v-76h266q40 0 40 -40v-64q0 -40 -40 -40h-266v-62 q0 -39 -39 -39h-98q-39 0 -39 39v62h-266q-40 0 -40 40z" />
<glyph unicode="&#xa6;" horiz-adv-x="500" d="M213 -120q-34 0 -34 34v290q0 34 34 34h74q34 0 34 -34v-290q0 -34 -34 -34h-74zM213 380q-34 0 -34 34v290q0 34 34 34h74q34 0 34 -34v-290q0 -34 -34 -34h-74z" />
<glyph unicode="&#xa7;" horiz-adv-x="841" d="M90 -25h498q41 0 41 41v11q0 41 -41 41h-406q-72 0 -110.5 38.5t-38.5 110.5v32q0 110 86 139q-74 34 -74 135v28q0 72 38.5 110.5t110.5 38.5h557q37 0 37 -37v-73q0 -37 -37 -37h-498q-41 0 -41 -41v-11q0 -41 41 -41h406q72 0 110.5 -38.5t38.5 -110.5v-33 q0 -112 -90 -141q78 -30 78 -132v-28q0 -72 -38.5 -110.5t-110.5 -38.5h-557q-37 0 -37 37v73q0 37 37 37zM600 313h-359q-41 0 -41 -41v-16q0 -41 41 -41h359q41 0 41 41v16q0 41 -41 41z" />
<glyph unicode="&#xa8;" horiz-adv-x="500" d="M334 577q-30 0 -30 32v82q0 31 30 31h122q30 0 30 -31v-82q0 -32 -30 -32h-122zM44 577q-30 0 -30 32v82q0 31 30 31h122q30 0 30 -31v-82q0 -32 -30 -32h-122z" />
<glyph unicode="&#xa9;" horiz-adv-x="914" d="M238 298v104q0 48 29.5 77t77.5 29h290q24 0 24 -24v-61q0 -22 -24 -22h-251q-25 0 -25 -26v-50q0 -26 25 -26h251q24 0 24 -22v-61q0 -24 -24 -24h-290q-48 0 -77.5 29t-29.5 77zM49 221v258q0 106 57 163.5t163 57.5h376q106 0 163 -57.5t57 -163.5v-258 q0 -106 -57 -163.5t-163 -57.5h-376q-106 0 -163 57.5t-57 163.5zM170 471v-242q0 -122 122 -122h330q122 0 122 122v242q0 122 -122 122h-330q-122 0 -122 -122z" />
<glyph unicode="&#xaa;" horiz-adv-x="610" d="M153 534h275v8q0 40 -40 40h-308q-30 0 -30 30v58q0 30 30 30h355q57 0 92 -34.5t35 -92.5v-170q0 -58 -31 -88.5t-88 -30.5h-290q-58 0 -88.5 30.5t-30.5 88.5v11q0 58 30.5 89t88.5 31zM34 183q0 30 30 30h468q30 0 30 -30v-58q0 -30 -30 -30h-468q-30 0 -30 30v58z M188 402h220q20 0 20 20v28h-240q-20 0 -20 -20v-8q0 -20 20 -20z" />
<glyph unicode="&#xab;" horiz-adv-x="676" d="M23 260q0 14 14 30l153 175q22 25 59 25h101q19 0 25 -14.5t-5 -25.5l-168 -190l168 -190q11 -11 5 -25.5t-25 -14.5h-101q-37 0 -59 25l-153 175q-14 16 -14 30zM293 260q0 14 14 30l153 175q22 25 59 25h101q19 0 25 -14.5t-5 -25.5l-168 -190l168 -190q11 -11 5 -25.5 t-25 -14.5h-101q-37 0 -59 25l-153 175q-14 16 -14 30z" />
<glyph unicode="&#xac;" horiz-adv-x="734" d="M32 385v74q0 40 40 40h590q40 0 40 -40v-302q0 -40 -40 -40h-74q-40 0 -40 40v188h-476q-40 0 -40 40z" />
<glyph unicode="&#xad;" horiz-adv-x="372" d="M34 276v83q0 36 36 36h232q36 0 36 -36v-83q0 -36 -36 -36h-232q-36 0 -36 36z" />
<glyph unicode="&#xae;" horiz-adv-x="914" d="M49 221v258q0 106 57 163.5t163 57.5h376q106 0 163 -57.5t57 -163.5v-258q0 -106 -57 -163.5t-163 -57.5h-376q-106 0 -163 57.5t-57 163.5zM170 471v-242q0 -122 122 -122h330q122 0 122 122v242q0 122 -122 122h-330q-122 0 -122 -122zM530 269h-175v-53 q0 -24 -24 -24h-74q-23 0 -23 24v268q0 24 23 24h346q41 0 65 -21.5t24 -58.5v-39q0 -57 -54 -73q54 -15 54 -70v-30q0 -24 -24 -24h-74q-23 0 -23 24v13q0 40 -41 40zM355 356h195q21 0 21 21v14q0 20 -21 20h-195v-55z" />
<glyph unicode="&#xaf;" horiz-adv-x="500" d="M49 682q0 31 30 31h342q30 0 30 -31v-68q0 -32 -30 -32h-342q-30 0 -30 32v68z" />
<glyph unicode="&#xb0;" horiz-adv-x="524" d="M490 492q0 -94 -67 -161t-161 -67t-161 67t-67 161t67 161t161 67t161 -67t67 -161zM359 492q0 40 -28.5 68.5t-68.5 28.5t-68.5 -28.5t-28.5 -68.5t28.5 -68.5t68.5 -28.5t68.5 28.5t28.5 68.5z" />
<glyph unicode="&#xb1;" horiz-adv-x="734" d="M330 700h74q40 0 40 -40v-128h208q40 0 40 -40v-74q0 -40 -40 -40h-208v-128q0 -40 -40 -40h-74q-40 0 -40 40v128h-208q-40 0 -40 40v74q0 40 40 40h208v128q0 40 40 40zM42 40v74q0 40 40 40h570q40 0 40 -40v-74q0 -40 -40 -40h-570q-40 0 -40 40z" />
<glyph unicode="&#xb2;" horiz-adv-x="588" d="M59 252q-30 0 -30 30v133q0 110 134 110h239q23 0 23 21v15q0 21 -23 21h-330q-30 0 -30 30v58q0 30 30 30h354q134 0 134 -110v-53q0 -110 -134 -110h-239q-23 0 -23 -21v-36h362q30 0 30 -30v-58q0 -30 -30 -30h-467z" />
<glyph unicode="&#xb3;" horiz-adv-x="593" d="M58 252q-30 0 -30 30v58q0 30 30 30h350q23 0 23 21v15q0 21 -23 21h-298q-30 0 -30 30v38q0 30 30 30h292q23 0 23 21v15q0 21 -23 21h-344q-30 0 -30 30v58q0 30 30 30h371q65 0 98.5 -25.5t33.5 -84.5v-16q0 -73 -57 -97q62 -24 62 -99v-16q0 -110 -131 -110h-377z " />
<glyph unicode="&#xb4;" horiz-adv-x="500" d="M380 724l-103 -130q-17 -22 -45 -22h-96q-14 0 -19.5 11.5t1.5 20.5l83 128q14 23 42 23h122q14 0 18.5 -10.5t-3.5 -20.5z" />
<glyph unicode="&#xb5;" horiz-adv-x="773" d="M225 197q0 -23 13.5 -36.5t36.5 -13.5h226q23 0 36.5 13t13.5 37v286q0 37 37 37h93q37 0 37 -37v-324q0 -72 -44 -115.5t-115 -43.5h-207q-87 0 -127 56v-232q0 -37 -37 -37h-93q-37 0 -37 37v659q0 37 37 37h93q37 0 37 -37v-286z" />
<glyph unicode="&#xb6;" horiz-adv-x="841" d="M602 -135v680h-92v-680q0 -37 -37 -37h-83q-37 0 -37 37v315h-158q-71 0 -115 43.5t-44 115.5v202q0 72 44 115.5t115 43.5h593q40 0 40 -40v-75q0 -40 -40 -40h-29v-680q0 -37 -37 -37h-83q-37 0 -37 37z" />
<glyph unicode="&#xb7;" horiz-adv-x="306" d="M91 267q-40 0 -40 40v85q0 40 40 40h124q40 0 40 -40v-85q0 -40 -40 -40h-124z" />
<glyph unicode="&#xb8;" horiz-adv-x="500" d="M374 -80l-87 -111q-17 -22 -45 -22h-101q-14 0 -19.5 11.5t1.5 20.5l71 109q14 23 42 23h123q14 0 18.5 -10.5t-3.5 -20.5z" />
<glyph unicode="&#xb9;" horiz-adv-x="283" d="M127 252q-30 0 -30 30v300h-39q-30 0 -30 30v58q0 30 30 30h144q30 0 30 -30v-388q0 -30 -30 -30h-75z" />
<glyph unicode="&#xba;" horiz-adv-x="640" d="M176 284q-57 0 -92.5 35t-35.5 92v162q0 57 35.5 92t92.5 35h289q57 0 92 -34.5t35 -92.5v-162q0 -58 -35 -92.5t-92 -34.5h-289zM222 402h197q40 0 40 40v100q0 40 -40 40h-197q-40 0 -40 -40v-100q0 -40 40 -40zM48 183q0 30 30 30h484q30 0 30 -30v-58q0 -30 -30 -30 h-484q-30 0 -30 30v58z" />
<glyph unicode="&#xbb;" horiz-adv-x="676" d="M383 260q0 -14 -14 -30l-153 -175q-22 -25 -59 -25h-101q-19 0 -25 14.5t5 25.5l168 190l-168 190q-11 11 -5 25.5t25 14.5h101q37 0 59 -25l153 -175q14 -16 14 -30zM653 260q0 -14 -14 -30l-153 -175q-22 -25 -59 -25h-101q-19 0 -25 14.5t5 25.5l168 190l-168 190 q-11 11 -5 25.5t25 14.5h101q37 0 59 -25l153 -175q14 -16 14 -30z" />
<glyph unicode="&#xbc;" horiz-adv-x="987" d="M613 661l-352 -633q-16 -28 -45 -28h-68q-14 0 -18 13t4 26l352 633q9 16 18 22t26 6h67q14 0 18.5 -13t-2.5 -26zM127 252q-30 0 -30 30v300h-39q-30 0 -30 30v58q0 30 30 30h144q30 0 30 -30v-388q0 -30 -30 -30h-75zM795 30v66h-363q-30 0 -30 30v46q0 25 15 40 l205 215q21 21 53 21h83q12 0 16 -11.5t-5 -20.5l-197 -202h223v204q0 30 30 30h75q30 0 30 -30v-204h7q30 0 30 -30v-58q0 -30 -30 -30h-7v-66q0 -30 -30 -30h-75q-30 0 -30 30z" />
<glyph unicode="&#xbd;" horiz-adv-x="1051" d="M613 661l-352 -633q-16 -28 -45 -28h-68q-14 0 -18 13t4 26l352 633q9 16 18 22t26 6h67q14 0 18.5 -13t-2.5 -26zM127 252q-30 0 -30 30v300h-39q-30 0 -30 30v58q0 30 30 30h144q30 0 30 -30v-388q0 -30 -30 -30h-75zM522 0q-30 0 -30 30v133q0 110 134 110h239 q23 0 23 21v15q0 21 -23 21h-330q-30 0 -30 30v58q0 30 30 30h354q134 0 134 -110v-53q0 -110 -134 -110h-239q-23 0 -23 -21v-36h362q30 0 30 -30v-58q0 -30 -30 -30h-467z" />
<glyph unicode="&#xbe;" horiz-adv-x="1297" d="M923 661l-352 -633q-16 -28 -45 -28h-68q-14 0 -18 13t4 26l352 633q9 16 18 22t26 6h67q14 0 18.5 -13t-2.5 -26zM1105 30v66h-363q-30 0 -30 30v46q0 25 15 40l205 215q21 21 53 21h83q12 0 16 -11.5t-5 -20.5l-197 -202h223v204q0 30 30 30h75q30 0 30 -30v-204h7 q30 0 30 -30v-58q0 -30 -30 -30h-7v-66q0 -30 -30 -30h-75q-30 0 -30 30zM58 252q-30 0 -30 30v58q0 30 30 30h350q23 0 23 21v15q0 21 -23 21h-298q-30 0 -30 30v38q0 30 30 30h292q23 0 23 21v15q0 21 -23 21h-344q-30 0 -30 30v58q0 30 30 30h371q65 0 98.5 -25.5 t33.5 -84.5v-16q0 -73 -57 -97q62 -24 62 -99v-16q0 -110 -131 -110h-377z" />
<glyph unicode="&#xbf;" horiz-adv-x="725" d="M202 203q0 -48 53 -48h407q40 0 40 -40v-75q0 -40 -40 -40h-426q-210 0 -210 172v62q0 172 210 172h147q28 0 28 23v1q0 40 40 40h72q40 0 40 -40v-56q0 -116 -116 -116h-192q-53 0 -53 -48v-7zM549 700q40 0 40 -40v-85q0 -40 -40 -40h-124q-40 0 -40 40v85q0 40 40 40 h124z" />
<glyph unicode="&#xc0;" horiz-adv-x="990" d="M53 491q0 99 54 154t154 55h468q100 0 154 -55t54 -154v-449q0 -42 -42 -42h-102q-42 0 -42 42v155h-512v-155q0 -42 -42 -42h-102q-42 0 -42 42v449zM751 361v101q0 74 -74 74h-364q-74 0 -74 -74v-101h512zM438 766l-103 130q-8 10 -3.5 20.5t18.5 10.5h122 q28 0 42 -23l83 -128q7 -9 1.5 -20.5t-19.5 -11.5h-96q-28 0 -45 22z" />
<glyph unicode="&#xc1;" horiz-adv-x="990" d="M53 491q0 99 54 154t154 55h468q100 0 154 -55t54 -154v-449q0 -42 -42 -42h-102q-42 0 -42 42v155h-512v-155q0 -42 -42 -42h-102q-42 0 -42 42v449zM751 361v101q0 74 -74 74h-364q-74 0 -74 -74v-101h512zM655 896l-103 -130q-17 -22 -45 -22h-96q-14 0 -19.5 11.5 t1.5 20.5l83 128q14 23 42 23h122q14 0 18.5 -10.5t-3.5 -20.5z" />
<glyph unicode="&#xc2;" horiz-adv-x="990" d="M53 491q0 99 54 154t154 55h468q100 0 154 -55t54 -154v-449q0 -42 -42 -42h-102q-42 0 -42 42v155h-512v-155q0 -42 -42 -42h-102q-42 0 -42 42v449zM751 361v101q0 74 -74 74h-364q-74 0 -74 -74v-101h512zM555 766l-60 75l-60 -75q-17 -22 -45 -22h-94 q-14 0 -17.5 11.5t3.5 20.5l98 128q17 23 45 23h140q28 0 45 -23l98 -128q7 -9 3.5 -20.5t-17.5 -11.5h-94q-28 0 -45 22z" />
<glyph unicode="&#xc3;" horiz-adv-x="990" d="M53 491q0 99 54 154t154 55h468q100 0 154 -55t54 -154v-449q0 -42 -42 -42h-102q-42 0 -42 42v155h-512v-155q0 -42 -42 -42h-102q-42 0 -42 42v449zM751 361v101q0 74 -74 74h-364q-74 0 -74 -74v-101h512zM577 880q26 0 43 8.5t39 33.5q7 9 20.5 5.5t13.5 -17.5v-76 q0 -26 -17 -45q-38 -41 -101 -41q-43 0 -87 21.5t-76 21.5q-26 0 -43 -8.5t-39 -33.5q-8 -9 -21 -5.5t-13 17.5v76q0 26 17 45q38 41 101 41q44 0 88 -21.5t75 -21.5z" />
<glyph unicode="&#xc4;" horiz-adv-x="990" d="M53 491q0 99 54 154t154 55h468q100 0 154 -55t54 -154v-449q0 -42 -42 -42h-102q-42 0 -42 42v155h-512v-155q0 -42 -42 -42h-102q-42 0 -42 42v449zM751 361v101q0 74 -74 74h-364q-74 0 -74 -74v-101h512zM579 749q-30 0 -30 32v82q0 31 30 31h122q30 0 30 -31v-82 q0 -32 -30 -32h-122zM289 749q-30 0 -30 32v82q0 31 30 31h122q30 0 30 -31v-82q0 -32 -30 -32h-122z" />
<glyph unicode="&#xc5;" horiz-adv-x="990" d="M53 491q0 99 54 154t154 55h468q100 0 154 -55t54 -154v-449q0 -42 -42 -42h-102q-42 0 -42 42v155h-512v-155q0 -42 -42 -42h-102q-42 0 -42 42v449zM751 361v101q0 74 -74 74h-364q-74 0 -74 -74v-101h512zM457 735q-134 0 -134 107v10q0 107 134 107h76 q134 0 134 -107v-10q0 -107 -134 -107h-76zM464 877q-46 0 -46 -27v-6q0 -27 46 -27h62q46 0 46 27v6q0 27 -46 27h-62z" />
<glyph unicode="&#xc6;" horiz-adv-x="1626" d="M1011 700h535q42 0 42 -42v-80q0 -42 -42 -42h-546q-74 0 -74 -74v-35h540q42 0 42 -42v-70q0 -42 -42 -42h-540v-35q0 -74 74 -74h546q42 0 42 -42v-80q0 -42 -42 -42h-598q-97 0 -151 51.5t-57 145.5h-501v-155q0 -42 -42 -42h-102q-42 0 -42 42v449q0 99 54 154 t154 55h394q125 0 178 -86q52 86 178 86zM313 536q-74 0 -74 -74v-101h501v101q0 74 -74 74h-353z" />
<glyph unicode="&#xc7;" horiz-adv-x="934" d="M257 0q-100 0 -154 55t-54 154v282q0 99 54 154t154 55h598q42 0 42 -42v-80q0 -42 -42 -42h-546q-74 0 -74 -74v-224q0 -74 74 -74h546q42 0 42 -42v-80q0 -42 -42 -42h-598zM608 -80l-87 -111q-17 -22 -45 -22h-101q-14 0 -19.5 11.5t1.5 20.5l71 109q14 23 42 23h123 q14 0 18.5 -10.5t-3.5 -20.5z" />
<glyph unicode="&#xc8;" horiz-adv-x="951" d="M235 273v-35q0 -74 74 -74h562q42 0 42 -42v-80q0 -42 -42 -42h-614q-100 0 -154 55t-54 154v282q0 99 54 154t154 55h614q42 0 42 -42v-80q0 -42 -42 -42h-562q-74 0 -74 -74v-35h556q42 0 42 -42v-70q0 -42 -42 -42h-556zM453 766l-103 130q-8 10 -3.5 20.5t18.5 10.5 h122q28 0 42 -23l83 -128q7 -9 1.5 -20.5t-19.5 -11.5h-96q-28 0 -45 22z" />
<glyph unicode="&#xc9;" horiz-adv-x="951" d="M235 273v-35q0 -74 74 -74h562q42 0 42 -42v-80q0 -42 -42 -42h-614q-100 0 -154 55t-54 154v282q0 99 54 154t154 55h614q42 0 42 -42v-80q0 -42 -42 -42h-562q-74 0 -74 -74v-35h556q42 0 42 -42v-70q0 -42 -42 -42h-556zM670 896l-103 -130q-17 -22 -45 -22h-96 q-14 0 -19.5 11.5t1.5 20.5l83 128q14 23 42 23h122q14 0 18.5 -10.5t-3.5 -20.5z" />
<glyph unicode="&#xca;" horiz-adv-x="951" d="M235 273v-35q0 -74 74 -74h562q42 0 42 -42v-80q0 -42 -42 -42h-614q-100 0 -154 55t-54 154v282q0 99 54 154t154 55h614q42 0 42 -42v-80q0 -42 -42 -42h-562q-74 0 -74 -74v-35h556q42 0 42 -42v-70q0 -42 -42 -42h-556zM570 766l-60 75l-60 -75q-17 -22 -45 -22h-94 q-14 0 -17.5 11.5t3.5 20.5l98 128q17 23 45 23h140q28 0 45 -23l98 -128q7 -9 3.5 -20.5t-17.5 -11.5h-94q-28 0 -45 22z" />
<glyph unicode="&#xcb;" horiz-adv-x="951" d="M235 273v-35q0 -74 74 -74h562q42 0 42 -42v-80q0 -42 -42 -42h-614q-100 0 -154 55t-54 154v282q0 99 54 154t154 55h614q42 0 42 -42v-80q0 -42 -42 -42h-562q-74 0 -74 -74v-35h556q42 0 42 -42v-70q0 -42 -42 -42h-556zM594 749q-30 0 -30 32v82q0 31 30 31h122 q30 0 30 -31v-82q0 -32 -30 -32h-122zM304 749q-30 0 -30 32v82q0 31 30 31h122q30 0 30 -31v-82q0 -32 -30 -32h-122z" />
<glyph unicode="&#xcc;" horiz-adv-x="300" d="M243 658v-616q0 -42 -42 -42h-102q-42 0 -42 42v616q0 42 42 42h102q42 0 42 -42zM123 766l-103 130q-8 10 -3.5 20.5t18.5 10.5h122q28 0 42 -23l83 -128q7 -9 1.5 -20.5t-19.5 -11.5h-96q-28 0 -45 22z" />
<glyph unicode="&#xcd;" horiz-adv-x="300" d="M243 658v-616q0 -42 -42 -42h-102q-42 0 -42 42v616q0 42 42 42h102q42 0 42 -42zM280 896l-103 -130q-17 -22 -45 -22h-96q-14 0 -19.5 11.5t1.5 20.5l83 128q14 23 42 23h122q14 0 18.5 -10.5t-3.5 -20.5z" />
<glyph unicode="&#xce;" horiz-adv-x="300" d="M243 658v-616q0 -42 -42 -42h-102q-42 0 -42 42v616q0 42 42 42h102q42 0 42 -42zM210 766l-60 75l-60 -75q-17 -22 -45 -22h-94q-14 0 -17.5 11.5t3.5 20.5l98 128q17 23 45 23h140q28 0 45 -23l98 -128q7 -9 3.5 -20.5t-17.5 -11.5h-94q-28 0 -45 22z" />
<glyph unicode="&#xcf;" horiz-adv-x="300" d="M224 749q-30 0 -30 32v82q0 31 30 31h122q30 0 30 -31v-82q0 -32 -30 -32h-122zM-46 749q-30 0 -30 32v82q0 31 30 31h122q30 0 30 -31v-82q0 -32 -30 -32h-122zM243 658v-616q0 -42 -42 -42h-102q-42 0 -42 42v616q0 42 42 42h102q42 0 42 -42z" />
<glyph unicode="&#xd0;" horiz-adv-x="1009" d="M77 658q0 42 42 42h602q117 0 178.5 -62.5t61.5 -178.5v-218q0 -116 -61.5 -178.5t-178.5 -62.5h-602q-42 0 -42 42v231h-25q-42 0 -42 42v70q0 42 42 42h25v231zM775 267v166q0 103 -104 103h-408v-109h197q42 0 42 -42v-70q0 -42 -42 -42h-197v-109h408q104 0 104 103z " />
<glyph unicode="&#xd1;" horiz-adv-x="986" d="M53 491q0 99 54 154t154 55h464q100 0 154 -55t54 -154v-449q0 -42 -42 -42h-102q-42 0 -42 42v420q0 74 -74 74h-360q-74 0 -74 -74v-420q0 -42 -42 -42h-102q-42 0 -42 42v449zM575 880q26 0 43 8.5t39 33.5q7 9 20.5 5.5t13.5 -17.5v-76q0 -26 -17 -45 q-38 -41 -101 -41q-43 0 -87 21.5t-76 21.5q-26 0 -43 -8.5t-39 -33.5q-8 -9 -21 -5.5t-13 17.5v76q0 26 17 45q38 41 101 41q44 0 88 -21.5t75 -21.5z" />
<glyph unicode="&#xd2;" horiz-adv-x="1002" d="M257 0q-100 0 -154 55t-54 154v282q0 99 54 154t154 55h488q100 0 154 -55t54 -154v-282q0 -99 -54 -154t-154 -55h-488zM693 164q74 0 74 74v224q0 74 -74 74h-384q-74 0 -74 -74v-224q0 -74 74 -74h384zM444 766l-103 130q-8 10 -3.5 20.5t18.5 10.5h122q28 0 42 -23 l83 -128q7 -9 1.5 -20.5t-19.5 -11.5h-96q-28 0 -45 22z" />
<glyph unicode="&#xd3;" horiz-adv-x="1002" d="M257 0q-100 0 -154 55t-54 154v282q0 99 54 154t154 55h488q100 0 154 -55t54 -154v-282q0 -99 -54 -154t-154 -55h-488zM693 164q74 0 74 74v224q0 74 -74 74h-384q-74 0 -74 -74v-224q0 -74 74 -74h384zM661 896l-103 -130q-17 -22 -45 -22h-96q-14 0 -19.5 11.5 t1.5 20.5l83 128q14 23 42 23h122q14 0 18.5 -10.5t-3.5 -20.5z" />
<glyph unicode="&#xd4;" horiz-adv-x="1002" d="M257 0q-100 0 -154 55t-54 154v282q0 99 54 154t154 55h488q100 0 154 -55t54 -154v-282q0 -99 -54 -154t-154 -55h-488zM693 164q74 0 74 74v224q0 74 -74 74h-384q-74 0 -74 -74v-224q0 -74 74 -74h384zM561 766l-60 75l-60 -75q-17 -22 -45 -22h-94q-14 0 -17.5 11.5 t3.5 20.5l98 128q17 23 45 23h140q28 0 45 -23l98 -128q7 -9 3.5 -20.5t-17.5 -11.5h-94q-28 0 -45 22z" />
<glyph unicode="&#xd5;" horiz-adv-x="1002" d="M257 0q-100 0 -154 55t-54 154v282q0 99 54 154t154 55h488q100 0 154 -55t54 -154v-282q0 -99 -54 -154t-154 -55h-488zM693 164q74 0 74 74v224q0 74 -74 74h-384q-74 0 -74 -74v-224q0 -74 74 -74h384zM583 880q26 0 43 8.5t39 33.5q7 9 20.5 5.5t13.5 -17.5v-76 q0 -26 -17 -45q-38 -41 -101 -41q-43 0 -87 21.5t-76 21.5q-26 0 -43 -8.5t-39 -33.5q-8 -9 -21 -5.5t-13 17.5v76q0 26 17 45q38 41 101 41q44 0 88 -21.5t75 -21.5z" />
<glyph unicode="&#xd6;" horiz-adv-x="1002" d="M257 0q-100 0 -154 55t-54 154v282q0 99 54 154t154 55h488q100 0 154 -55t54 -154v-282q0 -99 -54 -154t-154 -55h-488zM693 164q74 0 74 74v224q0 74 -74 74h-384q-74 0 -74 -74v-224q0 -74 74 -74h384zM585 749q-30 0 -30 32v82q0 31 30 31h122q30 0 30 -31v-82 q0 -32 -30 -32h-122zM295 749q-30 0 -30 32v82q0 31 30 31h122q30 0 30 -31v-82q0 -32 -30 -32h-122z" />
<glyph unicode="&#xd7;" horiz-adv-x="734" d="M136 67l-52 52q-27 29 0 57l174 174l-174 174q-27 28 0 57l52 52q28 27 57 0l174 -174l174 174q29 27 57 0l52 -52q27 -29 0 -57l-174 -174l174 -174q27 -28 0 -57l-52 -52q-28 -27 -57 0l-174 174l-174 -174q-29 -27 -57 0z" />
<glyph unicode="&#xd8;" horiz-adv-x="1002" d="M946 698l-49 -51q56 -54 56 -156v-282q0 -99 -54 -154t-154 -55h-475l-9 -10q-30 -30 -69 -30h-120q-17 0 -22 15.5t6 26.5l49 51q-56 54 -56 156v282q0 99 54 154t154 55h474l10 10q30 30 69 30h120q17 0 22 -15.5t-6 -26.5zM693 164q74 0 74 74v224q0 24 -9 41 l-329 -339h264zM235 238q0 -26 9 -42l328 340h-263q-74 0 -74 -74v-224z" />
<glyph unicode="&#xd9;" horiz-adv-x="986" d="M933 209q0 -99 -54 -154t-154 -55h-464q-100 0 -154 55t-54 154v449q0 42 42 42h102q42 0 42 -42v-420q0 -74 74 -74h360q74 0 74 74v420q0 42 42 42h102q42 0 42 -42v-449zM436 766l-103 130q-8 10 -3.5 20.5t18.5 10.5h122q28 0 42 -23l83 -128q7 -9 1.5 -20.5 t-19.5 -11.5h-96q-28 0 -45 22z" />
<glyph unicode="&#xda;" horiz-adv-x="986" d="M933 209q0 -99 -54 -154t-154 -55h-464q-100 0 -154 55t-54 154v449q0 42 42 42h102q42 0 42 -42v-420q0 -74 74 -74h360q74 0 74 74v420q0 42 42 42h102q42 0 42 -42v-449zM653 896l-103 -130q-17 -22 -45 -22h-96q-14 0 -19.5 11.5t1.5 20.5l83 128q14 23 42 23h122 q14 0 18.5 -10.5t-3.5 -20.5z" />
<glyph unicode="&#xdb;" horiz-adv-x="986" d="M933 209q0 -99 -54 -154t-154 -55h-464q-100 0 -154 55t-54 154v449q0 42 42 42h102q42 0 42 -42v-420q0 -74 74 -74h360q74 0 74 74v420q0 42 42 42h102q42 0 42 -42v-449zM553 766l-60 75l-60 -75q-17 -22 -45 -22h-94q-14 0 -17.5 11.5t3.5 20.5l98 128q17 23 45 23 h140q28 0 45 -23l98 -128q7 -9 3.5 -20.5t-17.5 -11.5h-94q-28 0 -45 22z" />
<glyph unicode="&#xdc;" horiz-adv-x="986" d="M933 209q0 -99 -54 -154t-154 -55h-464q-100 0 -154 55t-54 154v449q0 42 42 42h102q42 0 42 -42v-420q0 -74 74 -74h360q74 0 74 74v420q0 42 42 42h102q42 0 42 -42v-449zM577 749q-30 0 -30 32v82q0 31 30 31h122q30 0 30 -31v-82q0 -32 -30 -32h-122zM287 749 q-30 0 -30 32v82q0 31 30 31h122q30 0 30 -31v-82q0 -32 -30 -32h-122z" />
<glyph unicode="&#xdd;" horiz-adv-x="982" d="M217 435q0 -74 74 -74h400q74 0 74 74v223q0 42 42 42h102q42 0 42 -42v-252q0 -99 -54 -154t-154 -55h-159v-155q0 -42 -42 -42h-102q-42 0 -42 42v155h-159q-100 0 -154 55t-54 154v252q0 42 42 42h102q42 0 42 -42v-223zM651 896l-103 -130q-17 -22 -45 -22h-96 q-14 0 -19.5 11.5t1.5 20.5l83 128q14 23 42 23h122q14 0 18.5 -10.5t-3.5 -20.5z" />
<glyph unicode="&#xde;" horiz-adv-x="939" d="M57 658q0 42 42 42h102q42 0 42 -42v-38h462q100 0 154 -55t54 -154v-64q0 -99 -54 -154t-154 -55h-462v-96q0 -42 -42 -42h-102q-42 0 -42 42v616zM727 390q0 66 -66 66h-418v-154h418q66 0 66 66v22z" />
<glyph unicode="&#xdf;" horiz-adv-x="850" d="M98 579q0 72 44 115.5t115 43.5h154q71 0 115 -43.5t44 -115.5v-105q0 -35 35 -35h50q71 0 115 -43.5t44 -115.5v-121q0 -72 -44 -115.5t-115 -43.5h-264q-37 0 -37 37v73q0 37 37 37h206q23 0 36.5 13.5t13.5 36.5v45q0 23 -13.5 36.5t-36.5 13.5h-52q-69 0 -105.5 36 t-36.5 106v107q0 23 -13.5 36.5t-36.5 13.5h-38q-23 0 -36.5 -13.5t-13.5 -36.5v-504q0 -37 -37 -37h-93q-37 0 -37 37v336h-35q-37 0 -37 37v73q0 37 37 37h35v59z" />
<glyph unicode="&#xe0;" d="M537 312v11q0 23 -13.5 36.5t-36.5 13.5h-394q-37 0 -37 37v73q0 37 37 37h452q71 0 115 -43.5t44 -115.5v-212q0 -72 -39 -110.5t-110 -38.5h-370q-72 0 -110.5 38.5t-38.5 110.5v14q0 72 38.5 110.5t110.5 38.5h352zM229 147h282q26 0 26 26v35h-308q-26 0 -26 -26v-9 q0 -26 26 -26zM313 594l-103 130q-8 10 -3.5 20.5t18.5 10.5h122q28 0 42 -23l83 -128q7 -9 1.5 -20.5t-19.5 -11.5h-96q-28 0 -45 22z" />
<glyph unicode="&#xe1;" d="M537 312v11q0 23 -13.5 36.5t-36.5 13.5h-394q-37 0 -37 37v73q0 37 37 37h452q71 0 115 -43.5t44 -115.5v-212q0 -72 -39 -110.5t-110 -38.5h-370q-72 0 -110.5 38.5t-38.5 110.5v14q0 72 38.5 110.5t110.5 38.5h352zM229 147h282q26 0 26 26v35h-308q-26 0 -26 -26v-9 q0 -26 26 -26zM530 724l-103 -130q-17 -22 -45 -22h-96q-14 0 -19.5 11.5t1.5 20.5l83 128q14 23 42 23h122q14 0 18.5 -10.5t-3.5 -20.5z" />
<glyph unicode="&#xe2;" d="M537 312v11q0 23 -13.5 36.5t-36.5 13.5h-394q-37 0 -37 37v73q0 37 37 37h452q71 0 115 -43.5t44 -115.5v-212q0 -72 -39 -110.5t-110 -38.5h-370q-72 0 -110.5 38.5t-38.5 110.5v14q0 72 38.5 110.5t110.5 38.5h352zM229 147h282q26 0 26 26v35h-308q-26 0 -26 -26v-9 q0 -26 26 -26zM430 594l-60 75l-60 -75q-17 -22 -45 -22h-94q-14 0 -17.5 11.5t3.5 20.5l98 128q17 23 45 23h140q28 0 45 -23l98 -128q7 -9 3.5 -20.5t-17.5 -11.5h-94q-28 0 -45 22z" />
<glyph unicode="&#xe3;" d="M537 312v11q0 23 -13.5 36.5t-36.5 13.5h-394q-37 0 -37 37v73q0 37 37 37h452q71 0 115 -43.5t44 -115.5v-212q0 -72 -39 -110.5t-110 -38.5h-370q-72 0 -110.5 38.5t-38.5 110.5v14q0 72 38.5 110.5t110.5 38.5h352zM229 147h282q26 0 26 26v35h-308q-26 0 -26 -26v-9 q0 -26 26 -26zM453 708q26 0 43 8.5t39 33.5q7 9 20.5 5.5t13.5 -17.5v-76q0 -26 -17 -45q-38 -41 -101 -41q-43 0 -87 21.5t-76 21.5q-26 0 -43 -8.5t-39 -33.5q-8 -9 -21 -5.5t-13 17.5v76q0 26 17 45q38 41 101 41q44 0 88 -21.5t75 -21.5z" />
<glyph unicode="&#xe4;" d="M537 312v11q0 23 -13.5 36.5t-36.5 13.5h-394q-37 0 -37 37v73q0 37 37 37h452q71 0 115 -43.5t44 -115.5v-212q0 -72 -39 -110.5t-110 -38.5h-370q-72 0 -110.5 38.5t-38.5 110.5v14q0 72 38.5 110.5t110.5 38.5h352zM229 147h282q26 0 26 26v35h-308q-26 0 -26 -26v-9 q0 -26 26 -26zM454 577q-30 0 -30 32v82q0 31 30 31h122q30 0 30 -31v-82q0 -32 -30 -32h-122zM164 577q-30 0 -30 32v82q0 31 30 31h122q30 0 30 -31v-82q0 -32 -30 -32h-122z" />
<glyph unicode="&#xe5;" d="M537 312v11q0 23 -13.5 36.5t-36.5 13.5h-394q-37 0 -37 37v73q0 37 37 37h452q71 0 115 -43.5t44 -115.5v-212q0 -72 -39 -110.5t-110 -38.5h-370q-72 0 -110.5 38.5t-38.5 110.5v14q0 72 38.5 110.5t110.5 38.5h352zM229 147h282q26 0 26 26v35h-308q-26 0 -26 -26v-9 q0 -26 26 -26zM332 563q-134 0 -134 107v10q0 107 134 107h76q134 0 134 -107v-10q0 -107 -134 -107h-76zM339 705q-46 0 -46 -27v-6q0 -27 46 -27h62q46 0 46 27v6q0 27 -46 27h-62z" />
<glyph unicode="&#xe6;" horiz-adv-x="1243" d="M747 520h311q72 0 110.5 -38.5t38.5 -110.5v-14q0 -72 -38.5 -110.5t-110.5 -38.5h-353v-11q0 -23 13.5 -36.5t36.5 -13.5h395q37 0 37 -37v-73q0 -37 -37 -37h-403q-87 0 -126 64q-37 -64 -125 -64h-311q-72 0 -110.5 38.5t-38.5 110.5v14q0 72 38.5 110.5t110.5 38.5 h353v11q0 23 -13.5 36.5t-36.5 13.5h-395q-37 0 -37 37v73q0 37 37 37h403q87 0 125 -64q40 64 126 64zM488 147q23 0 36.5 13.5t13.5 36.5v11h-309q-26 0 -26 -26v-9q0 -26 26 -26h259zM705 323v-11h309q26 0 26 26v9q0 26 -26 26h-259q-23 0 -36.5 -13.5t-13.5 -36.5z" />
<glyph unicode="&#xe7;" horiz-adv-x="724" d="M649 147q37 0 37 -37v-73q0 -37 -37 -37h-440q-71 0 -115 43.5t-44 115.5v202q0 72 44 115.5t115 43.5h440q37 0 37 -37v-73q0 -37 -37 -37h-382q-23 0 -36.5 -13.5t-13.5 -36.5v-126q0 -23 13.5 -36.5t36.5 -13.5h382zM490 -80l-87 -111q-17 -22 -45 -22h-101 q-14 0 -19.5 11.5t1.5 20.5l71 109q14 23 42 23h123q14 0 18.5 -10.5t-3.5 -20.5z" />
<glyph unicode="&#xe8;" d="M209 520h360q72 0 110.5 -38.5t38.5 -110.5v-14q0 -72 -38.5 -110.5t-110.5 -38.5h-352v-11q0 -23 13.5 -36.5t36.5 -13.5h394q37 0 37 -37v-73q0 -37 -37 -37h-452q-71 0 -115 43.5t-44 115.5v202q0 72 44 115.5t115 43.5zM217 323v-11h308q26 0 26 26v9q0 26 -26 26 h-258q-23 0 -36.5 -13.5t-13.5 -36.5zM331 594l-103 130q-8 10 -3.5 20.5t18.5 10.5h122q28 0 42 -23l83 -128q7 -9 1.5 -20.5t-19.5 -11.5h-96q-28 0 -45 22z" />
<glyph unicode="&#xe9;" d="M209 520h360q72 0 110.5 -38.5t38.5 -110.5v-14q0 -72 -38.5 -110.5t-110.5 -38.5h-352v-11q0 -23 13.5 -36.5t36.5 -13.5h394q37 0 37 -37v-73q0 -37 -37 -37h-452q-71 0 -115 43.5t-44 115.5v202q0 72 44 115.5t115 43.5zM217 323v-11h308q26 0 26 26v9q0 26 -26 26 h-258q-23 0 -36.5 -13.5t-13.5 -36.5zM548 724l-103 -130q-17 -22 -45 -22h-96q-14 0 -19.5 11.5t1.5 20.5l83 128q14 23 42 23h122q14 0 18.5 -10.5t-3.5 -20.5z" />
<glyph unicode="&#xea;" d="M209 520h360q72 0 110.5 -38.5t38.5 -110.5v-14q0 -72 -38.5 -110.5t-110.5 -38.5h-352v-11q0 -23 13.5 -36.5t36.5 -13.5h394q37 0 37 -37v-73q0 -37 -37 -37h-452q-71 0 -115 43.5t-44 115.5v202q0 72 44 115.5t115 43.5zM217 323v-11h308q26 0 26 26v9q0 26 -26 26 h-258q-23 0 -36.5 -13.5t-13.5 -36.5zM448 594l-60 75l-60 -75q-17 -22 -45 -22h-94q-14 0 -17.5 11.5t3.5 20.5l98 128q17 23 45 23h140q28 0 45 -23l98 -128q7 -9 3.5 -20.5t-17.5 -11.5h-94q-28 0 -45 22z" />
<glyph unicode="&#xeb;" d="M209 520h360q72 0 110.5 -38.5t38.5 -110.5v-14q0 -72 -38.5 -110.5t-110.5 -38.5h-352v-11q0 -23 13.5 -36.5t36.5 -13.5h394q37 0 37 -37v-73q0 -37 -37 -37h-452q-71 0 -115 43.5t-44 115.5v202q0 72 44 115.5t115 43.5zM217 323v-11h308q26 0 26 26v9q0 26 -26 26 h-258q-23 0 -36.5 -13.5t-13.5 -36.5zM472 577q-30 0 -30 32v82q0 31 30 31h122q30 0 30 -31v-82q0 -32 -30 -32h-122zM182 577q-30 0 -30 32v82q0 31 30 31h122q30 0 30 -31v-82q0 -32 -30 -32h-122z" />
<glyph unicode="&#xec;" horiz-adv-x="319" d="M83 594l-103 130q-8 10 -3.5 20.5t18.5 10.5h122q28 0 42 -23l83 -128q7 -9 1.5 -20.5t-19.5 -11.5h-96q-28 0 -45 22zM222 173q0 -26 26 -26h8q37 0 37 -37v-73q0 -37 -37 -37h-53q-71 0 -109.5 38.5t-38.5 110.5v334q0 37 37 37h93q37 0 37 -37v-310z" />
<glyph unicode="&#xed;" horiz-adv-x="319" d="M298 724l-103 -130q-17 -22 -45 -22h-96q-14 0 -19.5 11.5t1.5 20.5l83 128q14 23 42 23h122q14 0 18.5 -10.5t-3.5 -20.5zM222 173q0 -26 26 -26h8q37 0 37 -37v-73q0 -37 -37 -37h-53q-71 0 -109.5 38.5t-38.5 110.5v334q0 37 37 37h93q37 0 37 -37v-310z" />
<glyph unicode="&#xee;" horiz-adv-x="319" d="M222 173q0 -26 26 -26h8q37 0 37 -37v-73q0 -37 -37 -37h-53q-71 0 -109.5 38.5t-38.5 110.5v334q0 37 37 37h93q37 0 37 -37v-310zM200 594l-60 75l-60 -75q-17 -22 -45 -22h-94q-14 0 -17.5 11.5t3.5 20.5l98 128q17 23 45 23h140q28 0 45 -23l98 -128q7 -9 3.5 -20.5 t-17.5 -11.5h-94q-28 0 -45 22z" />
<glyph unicode="&#xef;" horiz-adv-x="319" d="M212 577q-30 0 -30 32v82q0 31 30 31h122q30 0 30 -31v-82q0 -32 -30 -32h-122zM-58 577q-30 0 -30 32v82q0 31 30 31h122q30 0 30 -31v-82q0 -32 -30 -32h-122zM222 173q0 -26 26 -26h8q37 0 37 -37v-73q0 -37 -37 -37h-53q-71 0 -109.5 38.5t-38.5 110.5v334 q0 37 37 37h93q37 0 37 -37v-310z" />
<glyph unicode="&#xf0;" horiz-adv-x="781" d="M375 544q-15 0 -10 15l9 32h-102q-37 0 -37 37v73q0 37 37 37h142l11 40q3 12 15 12h31q15 0 10 -15l-10 -37h19q112 0 174 -62t62 -174v-343q0 -72 -44 -115.5t-115 -43.5h-358q-71 0 -115 43.5t-44 115.5v202q0 72 44 115.5t115 43.5h223q85 0 127 -57v23q0 55 -25 80 t-80 25h-24l-9 -35q-3 -12 -15 -12h-31zM559 197v126q0 23 -13.5 36.5t-36.5 13.5h-242q-23 0 -36.5 -13t-13.5 -37v-126q0 -23 13.5 -36.5t36.5 -13.5h242q23 0 36.5 13t13.5 37z" />
<glyph unicode="&#xf1;" horiz-adv-x="770" d="M55 361q0 72 44 115.5t115 43.5h342q71 0 115 -43.5t44 -115.5v-324q0 -37 -37 -37h-93q-37 0 -37 37v286q0 23 -13.5 36.5t-36.5 13.5h-226q-23 0 -36.5 -13.5t-13.5 -36.5v-286q0 -37 -37 -37h-93q-37 0 -37 37v324zM467 708q26 0 43 8.5t39 33.5q7 9 20.5 5.5 t13.5 -17.5v-76q0 -26 -17 -45q-38 -41 -101 -41q-43 0 -87 21.5t-76 21.5q-26 0 -43 -8.5t-39 -33.5q-8 -9 -21 -5.5t-13 17.5v76q0 26 17 45q38 41 101 41q44 0 88 -21.5t75 -21.5z" />
<glyph unicode="&#xf2;" horiz-adv-x="776" d="M209 0q-71 0 -115 43.5t-44 115.5v202q0 72 44 115.5t115 43.5h358q71 0 115 -43.5t44 -115.5v-202q0 -72 -44 -115.5t-115 -43.5h-358zM267 373q-23 0 -36.5 -13.5t-13.5 -36.5v-126q0 -23 13.5 -36.5t36.5 -13.5h242q23 0 36.5 13t13.5 37v126q0 23 -13.5 36.5 t-36.5 13.5h-242zM331 594l-103 130q-8 10 -3.5 20.5t18.5 10.5h122q28 0 42 -23l83 -128q7 -9 1.5 -20.5t-19.5 -11.5h-96q-28 0 -45 22z" />
<glyph unicode="&#xf3;" horiz-adv-x="776" d="M209 0q-71 0 -115 43.5t-44 115.5v202q0 72 44 115.5t115 43.5h358q71 0 115 -43.5t44 -115.5v-202q0 -72 -44 -115.5t-115 -43.5h-358zM267 373q-23 0 -36.5 -13.5t-13.5 -36.5v-126q0 -23 13.5 -36.5t36.5 -13.5h242q23 0 36.5 13t13.5 37v126q0 23 -13.5 36.5 t-36.5 13.5h-242zM548 724l-103 -130q-17 -22 -45 -22h-96q-14 0 -19.5 11.5t1.5 20.5l83 128q14 23 42 23h122q14 0 18.5 -10.5t-3.5 -20.5z" />
<glyph unicode="&#xf4;" horiz-adv-x="776" d="M209 0q-71 0 -115 43.5t-44 115.5v202q0 72 44 115.5t115 43.5h358q71 0 115 -43.5t44 -115.5v-202q0 -72 -44 -115.5t-115 -43.5h-358zM267 373q-23 0 -36.5 -13.5t-13.5 -36.5v-126q0 -23 13.5 -36.5t36.5 -13.5h242q23 0 36.5 13t13.5 37v126q0 23 -13.5 36.5 t-36.5 13.5h-242zM448 594l-60 75l-60 -75q-17 -22 -45 -22h-94q-14 0 -17.5 11.5t3.5 20.5l98 128q17 23 45 23h140q28 0 45 -23l98 -128q7 -9 3.5 -20.5t-17.5 -11.5h-94q-28 0 -45 22z" />
<glyph unicode="&#xf5;" horiz-adv-x="776" d="M209 0q-71 0 -115 43.5t-44 115.5v202q0 72 44 115.5t115 43.5h358q71 0 115 -43.5t44 -115.5v-202q0 -72 -44 -115.5t-115 -43.5h-358zM267 373q-23 0 -36.5 -13.5t-13.5 -36.5v-126q0 -23 13.5 -36.5t36.5 -13.5h242q23 0 36.5 13t13.5 37v126q0 23 -13.5 36.5 t-36.5 13.5h-242zM470 708q26 0 43 8.5t39 33.5q8 9 21 5.5t13 -17.5v-76q0 -26 -17 -45q-38 -41 -101 -41q-44 0 -88 21.5t-75 21.5q-26 0 -43 -8.5t-39 -33.5q-7 -9 -20.5 -5.5t-13.5 17.5v76q0 26 17 45q38 41 101 41q43 0 87 -21.5t76 -21.5z" />
<glyph unicode="&#xf6;" horiz-adv-x="776" d="M209 0q-71 0 -115 43.5t-44 115.5v202q0 72 44 115.5t115 43.5h358q71 0 115 -43.5t44 -115.5v-202q0 -72 -44 -115.5t-115 -43.5h-358zM267 373q-23 0 -36.5 -13.5t-13.5 -36.5v-126q0 -23 13.5 -36.5t36.5 -13.5h242q23 0 36.5 13t13.5 37v126q0 23 -13.5 36.5 t-36.5 13.5h-242zM472 577q-30 0 -30 32v82q0 31 30 31h122q30 0 30 -31v-82q0 -32 -30 -32h-122zM182 577q-30 0 -30 32v82q0 31 30 31h122q30 0 30 -31v-82q0 -32 -30 -32h-122z" />
<glyph unicode="&#xf7;" horiz-adv-x="734" d="M72 273q-40 0 -40 40v74q0 40 40 40h590q40 0 40 -40v-74q0 -40 -40 -40h-590zM303 19q-33 0 -33 34v105q0 33 33 33h128q33 0 33 -33v-105q0 -34 -33 -34h-128zM303 509q-33 0 -33 33v106q0 33 33 33h128q33 0 33 -33v-106q0 -33 -33 -33h-128z" />
<glyph unicode="&#xf8;" horiz-adv-x="776" d="M720 518l-38 -42q44 -44 44 -115v-202q0 -72 -44 -115.5t-115 -43.5h-320l-9 -10q-27 -30 -69 -30h-97q-17 0 -22 15.5t6 26.5l38 41q-44 44 -44 116v202q0 72 44 115.5t115 43.5h320l9 10q27 30 69 30h97q17 0 22 -15.5t-6 -26.5zM559 323q0 6 -2 16l-176 -192h128 q23 0 36.5 13t13.5 37v126zM267 373q-23 0 -36.5 -13.5t-13.5 -36.5v-126q0 -12 2 -17l176 193h-128z" />
<glyph unicode="&#xf9;" horiz-adv-x="770" d="M222 197q0 -23 13.5 -36.5t36.5 -13.5h226q23 0 36.5 13.5t13.5 36.5v286q0 37 37 37h93q37 0 37 -37v-324q0 -72 -44 -115.5t-115 -43.5h-342q-71 0 -115 43.5t-44 115.5v324q0 37 37 37h93q37 0 37 -37v-286zM328 594l-103 130q-8 10 -3.5 20.5t18.5 10.5h122 q28 0 42 -23l83 -128q7 -9 1.5 -20.5t-19.5 -11.5h-96q-28 0 -45 22z" />
<glyph unicode="&#xfa;" horiz-adv-x="770" d="M222 197q0 -23 13.5 -36.5t36.5 -13.5h226q23 0 36.5 13.5t13.5 36.5v286q0 37 37 37h93q37 0 37 -37v-324q0 -72 -44 -115.5t-115 -43.5h-342q-71 0 -115 43.5t-44 115.5v324q0 37 37 37h93q37 0 37 -37v-286zM545 724l-103 -130q-17 -22 -45 -22h-96q-14 0 -19.5 11.5 t1.5 20.5l83 128q14 23 42 23h122q14 0 18.5 -10.5t-3.5 -20.5z" />
<glyph unicode="&#xfb;" horiz-adv-x="770" d="M222 197q0 -23 13.5 -36.5t36.5 -13.5h226q23 0 36.5 13.5t13.5 36.5v286q0 37 37 37h93q37 0 37 -37v-324q0 -72 -44 -115.5t-115 -43.5h-342q-71 0 -115 43.5t-44 115.5v324q0 37 37 37h93q37 0 37 -37v-286zM445 594l-60 75l-60 -75q-17 -22 -45 -22h-94 q-14 0 -17.5 11.5t3.5 20.5l98 128q17 23 45 23h140q28 0 45 -23l98 -128q7 -9 3.5 -20.5t-17.5 -11.5h-94q-28 0 -45 22z" />
<glyph unicode="&#xfc;" horiz-adv-x="770" d="M222 197q0 -23 13.5 -36.5t36.5 -13.5h226q23 0 36.5 13.5t13.5 36.5v286q0 37 37 37h93q37 0 37 -37v-324q0 -72 -44 -115.5t-115 -43.5h-342q-71 0 -115 43.5t-44 115.5v324q0 37 37 37h93q37 0 37 -37v-286zM469 577q-30 0 -30 32v82q0 31 30 31h122q30 0 30 -31v-82 q0 -32 -30 -32h-122zM179 577q-30 0 -30 32v82q0 31 30 31h122q30 0 30 -31v-82q0 -32 -30 -32h-122z" />
<glyph unicode="&#xfd;" horiz-adv-x="774" d="M715 483v-521q1 -80 -47 -127.5t-128 -47.5h-420q-37 0 -37 37v66q0 37 37 37h373q55 0 55 56v73q-42 -56 -127 -56h-207q-71 0 -115 43.5t-44 115.5v324q0 37 37 37h93q37 0 37 -37v-286q0 -23 13.5 -36.5t36.5 -13.5h226q23 0 36.5 13.5t13.5 36.5v286q0 37 37 37h93 q37 0 37 -37zM549 724l-103 -130q-17 -22 -45 -22h-96q-14 0 -19.5 11.5t1.5 20.5l83 128q14 23 42 23h122q14 0 18.5 -10.5t-3.5 -20.5z" />
<glyph unicode="&#xfe;" horiz-adv-x="784" d="M575 520q71 0 115 -43.5t44 -115.5v-202q0 -72 -44 -115.5t-115 -43.5h-223q-87 0 -127 56v-232q0 -37 -37 -37h-93q-37 0 -37 37v877q0 37 37 37h93q37 0 37 -37v-238q41 57 127 57h223zM275 373q-23 0 -36.5 -13.5t-13.5 -36.5v-126q0 -23 13.5 -36.5t36.5 -13.5h242 q23 0 36.5 13.5t13.5 36.5v126q0 23 -13.5 36.5t-36.5 13.5h-242z" />
<glyph unicode="&#xff;" horiz-adv-x="774" d="M715 483v-521q1 -80 -47 -127.5t-128 -47.5h-420q-37 0 -37 37v66q0 37 37 37h373q55 0 55 56v73q-42 -56 -127 -56h-207q-71 0 -115 43.5t-44 115.5v324q0 37 37 37h93q37 0 37 -37v-286q0 -23 13.5 -36.5t36.5 -13.5h226q23 0 36.5 13.5t13.5 36.5v286q0 37 37 37h93 q37 0 37 -37zM473 577q-30 0 -30 32v82q0 31 30 31h122q30 0 30 -31v-82q0 -32 -30 -32h-122zM183 577q-30 0 -30 32v82q0 31 30 31h122q30 0 30 -31v-82q0 -32 -30 -32h-122z" />
<glyph unicode="&#x152;" horiz-adv-x="1642" d="M1030 0q-127 0 -178 86q-52 -86 -178 -86h-417q-100 0 -154 55t-54 154v282q0 99 54 154t154 55h417q125 0 178 -86q52 86 178 86h532q42 0 42 -42v-80q0 -42 -42 -42h-543q-74 0 -74 -74v-35h537q42 0 42 -42v-70q0 -42 -42 -42h-537v-35q0 -74 74 -74h543q42 0 42 -42 v-80q0 -42 -42 -42h-532zM309 164h376q74 0 74 74v224q0 74 -74 74h-376q-74 0 -74 -74v-224q0 -74 74 -74z" />
<glyph unicode="&#x153;" horiz-adv-x="1264" d="M209 0q-71 0 -115 43.5t-44 115.5v202q0 72 44 115.5t115 43.5h309q87 0 125 -64q40 64 126 64h310q72 0 110.5 -38.5t38.5 -110.5v-14q0 -72 -38.5 -110.5t-110.5 -38.5h-352v-11q0 -23 13.5 -36.5t36.5 -13.5h394q37 0 37 -37v-73q0 -37 -37 -37h-402q-87 0 -126 64 q-37 -64 -125 -64h-309zM267 147h243q23 0 36.5 13.5t13.5 36.5v126q0 23 -13.5 36.5t-36.5 13.5h-243q-23 0 -36.5 -13.5t-13.5 -36.5v-126q0 -23 13.5 -36.5t36.5 -13.5zM727 323v-11h308q26 0 26 26v9q0 26 -26 26h-258q-23 0 -36.5 -13t-13.5 -37z" />
<glyph unicode="&#x178;" horiz-adv-x="982" d="M217 435q0 -74 74 -74h400q74 0 74 74v223q0 42 42 42h102q42 0 42 -42v-252q0 -99 -54 -154t-154 -55h-159v-155q0 -42 -42 -42h-102q-42 0 -42 42v155h-159q-100 0 -154 55t-54 154v252q0 42 42 42h102q42 0 42 -42v-223zM575 749q-30 0 -30 32v82q0 31 30 31h122 q30 0 30 -31v-82q0 -32 -30 -32h-122zM285 749q-30 0 -30 32v82q0 31 30 31h122q30 0 30 -31v-82q0 -32 -30 -32h-122z" />
<glyph unicode="&#x2c6;" horiz-adv-x="500" d="M310 594l-60 75l-60 -75q-17 -22 -45 -22h-94q-14 0 -17.5 11.5t3.5 20.5l98 128q17 23 45 23h140q28 0 45 -23l98 -128q7 -9 3.5 -20.5t-17.5 -11.5h-94q-28 0 -45 22z" />
<glyph unicode="&#x2dc;" horiz-adv-x="500" d="M332 708q26 0 43 8.5t39 33.5q8 9 21 5.5t13 -17.5v-76q0 -26 -17 -45q-38 -41 -101 -41q-44 0 -88 21.5t-75 21.5q-26 0 -43 -8.5t-39 -33.5q-7 -9 -20.5 -5.5t-13.5 17.5v76q0 26 17 45q38 41 101 41q43 0 87 -21.5t76 -21.5z" />
<glyph unicode="&#x2000;" horiz-adv-x="479" />
<glyph unicode="&#x2001;" horiz-adv-x="959" />
<glyph unicode="&#x2002;" horiz-adv-x="479" />
<glyph unicode="&#x2003;" horiz-adv-x="959" />
<glyph unicode="&#x2004;" horiz-adv-x="319" />
<glyph unicode="&#x2005;" horiz-adv-x="239" />
<glyph unicode="&#x2006;" horiz-adv-x="159" />
<glyph unicode="&#x2007;" horiz-adv-x="159" />
<glyph unicode="&#x2008;" horiz-adv-x="119" />
<glyph unicode="&#x2009;" horiz-adv-x="191" />
<glyph unicode="&#x200a;" horiz-adv-x="53" />
<glyph unicode="&#x2010;" horiz-adv-x="372" d="M34 276v83q0 36 36 36h232q36 0 36 -36v-83q0 -36 -36 -36h-232q-36 0 -36 36z" />
<glyph unicode="&#x2011;" horiz-adv-x="372" d="M34 276v83q0 36 36 36h232q36 0 36 -36v-83q0 -36 -36 -36h-232q-36 0 -36 36z" />
<glyph unicode="&#x2012;" horiz-adv-x="372" d="M34 276v83q0 36 36 36h232q36 0 36 -36v-83q0 -36 -36 -36h-232q-36 0 -36 36z" />
<glyph unicode="&#x2013;" horiz-adv-x="500" d="M0 280v75q0 36 36 36h428q36 0 36 -36v-75q0 -36 -36 -36h-428q-36 0 -36 36z" />
<glyph unicode="&#x2014;" horiz-adv-x="1000" d="M125 280v75q0 36 36 36h678q36 0 36 -36v-75q0 -36 -36 -36h-678q-36 0 -36 36z" />
<glyph unicode="&#x2018;" horiz-adv-x="306" d="M68 552l69 122q14 26 44 26h53q14 0 19 -10.5t-2 -22.5l-77 -145h41q40 0 40 -40v-85q0 -40 -40 -40h-124q-40 0 -40 40v90q0 36 17 65z" />
<glyph unicode="&#x2019;" horiz-adv-x="306" d="M238 505l-69 -122q-14 -26 -44 -26h-53q-14 0 -19 10.5t2 22.5l77 145h-41q-40 0 -40 40v85q0 40 40 40h124q40 0 40 -40v-90q0 -36 -17 -65z" />
<glyph unicode="&#x201a;" horiz-adv-x="306" d="M238 -30l-69 -122q-14 -26 -44 -26h-53q-14 0 -19 10.5t2 22.5l77 145h-41q-40 0 -40 40v85q0 40 40 40h124q40 0 40 -40v-90q0 -36 -17 -65z" />
<glyph unicode="&#x201c;" horiz-adv-x="569" d="M331 552l69 122q14 26 44 26h53q14 0 19 -10.5t-2 -22.5l-77 -145h41q40 0 40 -40v-85q0 -40 -40 -40h-124q-40 0 -40 40v90q0 36 17 65zM68 552l69 122q14 26 44 26h53q14 0 19 -10.5t-2 -22.5l-77 -145h41q40 0 40 -40v-85q0 -40 -40 -40h-124q-40 0 -40 40v90 q0 36 17 65z" />
<glyph unicode="&#x201d;" horiz-adv-x="569" d="M501 505l-69 -122q-14 -26 -44 -26h-53q-14 0 -19 10.5t2 22.5l77 145h-41q-40 0 -40 40v85q0 40 40 40h124q40 0 40 -40v-90q0 -36 -17 -65zM238 505l-69 -122q-14 -26 -44 -26h-53q-14 0 -19 10.5t2 22.5l77 145h-41q-40 0 -40 40v85q0 40 40 40h124q40 0 40 -40v-90 q0 -36 -17 -65z" />
<glyph unicode="&#x201e;" horiz-adv-x="569" d="M501 -30l-69 -122q-14 -26 -44 -26h-53q-14 0 -19 10.5t2 22.5l77 145h-41q-40 0 -40 40v85q0 40 40 40h124q40 0 40 -40v-90q0 -36 -17 -65zM238 -30l-69 -122q-14 -26 -44 -26h-53q-14 0 -19 10.5t2 22.5l77 145h-41q-40 0 -40 40v85q0 40 40 40h124q40 0 40 -40v-90 q0 -36 -17 -65z" />
<glyph unicode="&#x2022;" horiz-adv-x="500" d="M38 318q0 88 62 150t150 62t150 -62t62 -150t-62 -150t-150 -62t-150 62t-62 150z" />
<glyph unicode="&#x2026;" horiz-adv-x="1000" d="M769 0q-40 0 -40 40v85q0 40 40 40h124q40 0 40 -40v-85q0 -40 -40 -40h-124zM438 0q-40 0 -40 40v85q0 40 40 40h124q40 0 40 -40v-85q0 -40 -40 -40h-124zM107 0q-40 0 -40 40v85q0 40 40 40h124q40 0 40 -40v-85q0 -40 -40 -40h-124z" />
<glyph unicode="&#x202f;" horiz-adv-x="191" />
<glyph unicode="&#x2039;" horiz-adv-x="406" d="M23 260q0 14 14 30l153 175q22 25 59 25h101q19 0 25 -14.5t-5 -25.5l-168 -190l168 -190q11 -11 5 -25.5t-25 -14.5h-101q-37 0 -59 25l-153 175q-14 16 -14 30z" />
<glyph unicode="&#x203a;" horiz-adv-x="406" d="M383 260q0 -14 -14 -30l-153 -175q-22 -25 -59 -25h-101q-19 0 -25 14.5t5 25.5l168 190l-168 190q-11 11 -5 25.5t25 14.5h101q37 0 59 -25l153 -175q14 -16 14 -30z" />
<glyph unicode="&#x205f;" horiz-adv-x="239" />
<glyph unicode="&#x20ac;" horiz-adv-x="931" d="M738 383h-481v-66h369q28 0 28 -29v-34q0 -29 -28 -29h-369q0 -33 19.5 -51.5t53.5 -18.5h524q40 0 40 -40v-75q0 -40 -40 -40h-573q-95 0 -147.5 52.5t-52.5 147.5v25h-32q-29 0 -29 29v34q0 29 29 29h32v66h-32q-29 0 -29 29v34q0 29 29 29h32v25q0 96 52 148t148 52 h573q40 0 40 -40v-75q0 -40 -40 -40h-524q-34 0 -53.5 -19t-19.5 -51h481q28 0 28 -29v-34q0 -29 -28 -29z" />
<glyph unicode="&#x2122;" horiz-adv-x="1132" d="M484 341v227q0 63 34 97.5t97 34.5h49q82 0 112 -60q30 60 113 60h58q63 0 97.5 -34.5t34.5 -97.5v-227q0 -23 -23 -23h-76q-22 0 -22 23v199q0 23 -15 38t-40 15h-12q-24 0 -39 -15t-15 -38v-199q0 -23 -23 -23h-76q-22 0 -22 23v199q0 23 -15.5 38t-39.5 15h-12 q-24 0 -39 -15t-15 -38v-199q0 -23 -23 -23h-66q-22 0 -22 23zM47 700h366q23 0 23 -23v-61q0 -23 -23 -23h-123v-252q0 -23 -23 -23h-75q-23 0 -23 23v252h-122q-23 0 -23 23v61q0 23 23 23z" />
</font>
</defs>
</svg>
